<?xml version="1.0" encoding="UTF-8" standalone="no"?> <!-- Created with Vectornator for iOS (http://vectornator.io/) --><!DOCTYPE svg PUBLIC "-//W3C//DTD SVG 1.1//EN" "http://www.w3.org/Graphics/SVG/1.1/DTD/svg11.dtd">
<svg height="100%" style="fill-rule:nonzero;clip-rule:evenodd;stroke-linecap:round;stroke-linejoin:round;" xmlns:xlink="http://www.w3.org/1999/xlink" xmlns="http://www.w3.org/2000/svg" xml:space="preserve" width="100%" xmlns:vectornator="http://vectornator.io" version="1.1" viewBox="0 0 854 305">
<metadata>
<vectornator:setting key="DimensionsVisible" value="1"/>
<vectornator:setting key="PencilOnly" value="0"/>
<vectornator:setting key="SnapToPoints" value="0"/>
<vectornator:setting key="OutlineMode" value="0"/>
<vectornator:setting key="CMYKEnabledKey" value="0"/>
<vectornator:setting key="RulersVisible" value="1"/>
<vectornator:setting key="SnapToEdges" value="0"/>
<vectornator:setting key="GuidesVisible" value="1"/>
<vectornator:setting key="DisplayWhiteBackground" value="0"/>
<vectornator:setting key="doHistoryDisabled" value="0"/>
<vectornator:setting key="SnapToGuides" value="1"/>
<vectornator:setting key="TimeLapseWatermarkDisabled" value="0"/>
<vectornator:setting key="Units" value="Pixels"/>
<vectornator:setting key="DynamicGuides" value="0"/>
<vectornator:setting key="IsolateActiveLayer" value="0"/>
<vectornator:setting key="SnapToGrid" value="0"/>
</metadata>
<defs/>
<g id="Layer 1" vectornator:layerName="Layer 1">
<path stroke="#000000" stroke-width="1" d="M0+0L854.006+0L854.006+305.272L0+305.272L0+0Z" fill="#000000" stroke-linecap="round" opacity="1" stroke-linejoin="round"/>
<path stroke="#ffcc00" stroke-width="1" d="M37.2425+229.92L37.2425+230.483L74.0196+253.918L814.842+253.918L814.842+229.92L37.2425+229.92Z" fill="#ffcc00" stroke-linecap="round" opacity="1" stroke-linejoin="round"/>
<path stroke="#ffcc00" stroke-width="1" d="M790.93+104.728L814.93+104.728L814.93+229.728L790.93+229.728L790.93+104.728Z" fill="#ffcc00" stroke-linecap="round" opacity="1" stroke-linejoin="round"/>
<path stroke="#ffcc00" stroke-width="1" d="M688.057+46.5685L712.057+46.5685L712.057+229.728L688.057+229.728L688.057+46.5685Z" fill="#ffcc00" stroke-linecap="round" opacity="1" stroke-linejoin="round"/>
<path stroke="#ffcc00" stroke-width="1" d="M582.29+46.5685L606.29+46.5685L606.29+229.728L582.29+229.728L582.29+46.5685Z" fill="#ffcc00" stroke-linecap="round" opacity="1" stroke-linejoin="round"/>
<path stroke="#ffcc00" stroke-width="1" d="M600.477+108.679L701.155+108.679L701.155+132.679L600.477+132.679L600.477+108.679Z" fill="#ffcc00" stroke-linecap="round" opacity="1" stroke-linejoin="round"/>
<path stroke="#ffcc00" stroke-width="1" d="M594.29+78.0302L694.968+78.0302L694.968+102.03L594.29+102.03L594.29+78.0302Z" fill="#ffcc00" stroke-linecap="round" opacity="1" stroke-linejoin="round"/>
<path stroke="#ffcc00" stroke-width="1" d="M594.29+139.328L694.968+139.328L694.968+163.328L594.29+163.328L594.29+139.328Z" fill="#ffcc00" stroke-linecap="round" opacity="1" stroke-linejoin="round"/>
<path stroke="#ffcc00" stroke-width="1" d="M701.155+125.75L801.833+125.75L801.833+149.75L701.155+149.75L701.155+125.75Z" fill="#ffcc00" stroke-linecap="round" opacity="1" stroke-linejoin="round"/>
<path stroke="#ffcc00" stroke-width="1" d="M811.115+150.83L704.895+219.326L691.873+199.167L798.092+130.67L811.115+150.83Z" fill="#ffcc00" stroke-linecap="round" opacity="1" stroke-linejoin="round"/>
<path stroke="#ffcc00" stroke-width="1" d="M644.518+46.557L691.799+99.0882L709.58+83.057L676.737+46.557L644.518+46.557Z" fill="#ffcc00" stroke-linecap="round" opacity="1" stroke-linejoin="round"/>
</g>
<g id="Layer 2" vectornator:layerName="Layer 2" visibility="hidden">
<path stroke="#000000" stroke-width="1" d="M107.276+165.136L961.282+165.136L961.282+470.407L107.276+470.407L107.276+165.136Z" fill="#000000" stroke-linecap="round" opacity="1" stroke-linejoin="round"/>
<path stroke="#000000" stroke-width="1" d="M183.595+394.807L183.595+395.37L220.376+418.807L961.282+418.807L961.282+394.807L183.595+394.807Z" fill="#ffcc00" stroke-linecap="round" opacity="1" stroke-linejoin="round"/>
<path stroke="#ffcc00" stroke-width="1" d="M892.288+281.823L916.288+281.823L916.288+406.823L892.288+406.823L892.288+281.823Z" fill="#ffcc00" stroke-linecap="round" opacity="1" stroke-linejoin="round"/>
<path stroke="#ffcc00" stroke-width="1" d="M789.415+223.663L813.415+223.663L813.415+406.823L789.415+406.823L789.415+223.663Z" fill="#ffcc00" stroke-linecap="round" opacity="1" stroke-linejoin="round"/>
<path stroke="#ffcc00" stroke-width="1" d="M683.648+223.663L707.648+223.663L707.648+406.823L683.648+406.823L683.648+223.663Z" fill="#ffcc00" stroke-linecap="round" opacity="1" stroke-linejoin="round"/>
<path stroke="#ffcc00" stroke-width="1" d="M701.835+285.773L802.513+285.773L802.513+309.773L701.835+309.773L701.835+285.773Z" fill="#ffcc00" stroke-linecap="round" opacity="1" stroke-linejoin="round"/>
<path stroke="#ffcc00" stroke-width="1" d="M695.648+255.124L796.326+255.124L796.326+279.124L695.648+279.124L695.648+255.124Z" fill="#ffcc00" stroke-linecap="round" opacity="1" stroke-linejoin="round"/>
<path stroke="#ffcc00" stroke-width="1" d="M695.648+316.422L796.326+316.422L796.326+340.422L695.648+340.422L695.648+316.422Z" fill="#ffcc00" stroke-linecap="round" opacity="1" stroke-linejoin="round"/>
<path stroke="#ffcc00" stroke-width="1" d="M802.513+302.845L903.191+302.845L903.191+326.845L802.513+326.845L802.513+302.845Z" fill="#ffcc00" stroke-linecap="round" opacity="1" stroke-linejoin="round"/>
<path stroke="#ffcc00" stroke-width="1" d="M912.473+327.924L806.253+396.421L793.231+376.261L899.45+307.765L912.473+327.924Z" fill="#ffcc00" stroke-linecap="round" opacity="1" stroke-linejoin="round"/>
<path stroke="#ffcc00" stroke-width="1" d="M745.876+223.651L793.157+276.182L810.938+260.151L778.095+223.651L745.876+223.651Z" fill="#ffcc00" stroke-linecap="round" opacity="1" stroke-linejoin="round"/>
<path stroke="#ffcc00" stroke-width="1" d="M107.276+199.663L852.852+199.663L852.852+223.663L107.276+223.663L107.276+199.663Z" fill="#ffcc00" stroke-linecap="round" opacity="1" stroke-linejoin="round"/>
<path stroke="#ffcc00" stroke-width="1" d="M107.276+394.807L961.282+394.807L961.282+418.807L107.276+418.807L107.276+394.807Z" fill="#ffcc00" stroke-linecap="round" opacity="1" stroke-linejoin="round"/>
<g opacity="1">
<path d="M271.081+383.97C272.728+383.796+273.746+383.515+274.136+383.125C274.526+382.735+274.721+382.236+274.721+381.63L274.721+333.01L252.361+333.01C251.668+333.01+251.148+333.248+250.801+333.725C250.455+334.201+250.195+335.176+250.021+336.65L248.461+336.65L248.461+313.51L250.021+313.51C250.195+314.983+250.455+315.958+250.801+316.435C251.148+316.911+251.668+317.15+252.361+317.15L316.581+317.15C317.275+317.15+317.795+316.911+318.141+316.435C318.488+315.958+318.748+314.983+318.921+313.51L320.481+313.51L320.481+336.65L318.921+336.65C318.748+335.176+318.488+334.201+318.141+333.725C317.795+333.248+317.275+333.01+316.581+333.01L294.221+333.01L294.221+381.63C294.221+382.236+294.416+382.735+294.806+383.125C295.196+383.515+296.215+383.796+297.861+383.97L297.861+385.53L271.081+385.53L271.081+383.97Z" opacity="1" fill="#ffffff"/>
<path d="M379.761+346.01C383.575+346.01+386.196+345.295+387.626+343.865C389.056+342.435+389.771+340.766+389.771+338.86C389.771+336.953+389.056+335.285+387.626+333.855C386.196+332.425+383.575+331.71+379.761+331.71L357.921+331.71L357.921+346.01L379.761+346.01ZM357.921+381.63C357.921+382.236+358.116+382.735+358.506+383.125C358.896+383.515+359.915+383.796+361.561+383.97L361.561+385.53L334.781+385.53L334.781+383.97C336.428+383.796+337.446+383.515+337.836+383.125C338.226+382.735+338.421+382.236+338.421+381.63L338.421+321.05C338.421+320.443+338.226+319.945+337.836+319.555C337.446+319.165+336.428+318.883+334.781+318.71L334.781+317.15L382.361+317.15C391.981+317.15+398.958+318.905+403.291+322.415C407.625+325.925+409.791+331.363+409.791+338.73C409.791+344.71+408.036+349.39+404.526+352.77C401.016+356.15+396.575+358.576+391.201+360.05L406.541+381.63C407.581+383.19+408.838+383.97+410.311+383.97L410.311+385.53L383.271+385.53L383.271+383.97C385.178+383.883+386.131+383.103+386.131+381.63C386.131+381.456+385.785+380.85+385.091+379.81C384.398+378.77+383.531+377.513+382.491+376.04C381.451+374.566+380.303+372.985+379.046+371.295C377.79+369.605+376.576+367.98+375.406+366.42C374.236+364.86+373.218+363.473+372.351+362.26C371.485+361.046+370.921+360.223+370.661+359.79L357.921+359.79L357.921+381.63Z" opacity="1" fill="#ffffff"/>
<path d="M444.111+382.67C444.111+383.103+444.263+383.428+444.566+383.645C444.87+383.861+445.498+383.97+446.451+383.97L446.451+385.53L423.441+385.53L423.441+383.97C424.395+383.796+425.088+383.515+425.521+383.125C425.955+382.735+426.388+382.02+426.821+380.98C426.995+380.546+427.428+379.376+428.121+377.47C428.815+375.563+429.725+373.158+430.851+370.255C431.978+367.351+433.235+364.123+434.621+360.57C436.008+357.016+437.395+353.398+438.781+349.715C440.168+346.031+441.533+342.435+442.876+338.925C444.22+335.415+445.411+332.273+446.451+329.5C447.491+326.726+448.336+324.473+448.986+322.74C449.636+321.006+449.961+320.096+449.961+320.01C449.961+319.576+449.68+319.273+449.116+319.1C448.553+318.926+447.968+318.796+447.361+318.71L447.361+317.15L481.291+317.15L481.291+318.71C480.598+318.796+480.035+318.926+479.601+319.1C479.168+319.273+478.951+319.706+478.951+320.4C478.951+320.573+479.363+321.7+480.186+323.78C481.01+325.86+482.071+328.568+483.371+331.905C484.671+335.241+486.166+339.011+487.856+343.215C489.546+347.418+491.301+351.708+493.121+356.085C494.941+360.461+496.696+364.73+498.386+368.89C500.076+373.05+501.615+376.776+503.001+380.07C503.695+381.63+504.28+382.67+504.756+383.19C505.233+383.71+505.861+383.97+506.641+383.97L506.641+385.53L481.031+385.53L481.031+383.97C482.678+383.883+483.501+383.363+483.501+382.41C483.501+382.323+483.285+381.738+482.851+380.655C482.418+379.571+481.941+378.358+481.421+377.015C480.901+375.671+480.403+374.393+479.926+373.18C479.45+371.966+479.168+371.143+479.081+370.71L448.271+370.71C447.405+373.05+446.711+374.956+446.191+376.43C445.671+377.903+445.26+379.073+444.956+379.94C444.653+380.806+444.436+381.435+444.306+381.825C444.176+382.215+444.111+382.496+444.111+382.67ZM475.701+360.31L463.091+329.37L451.521+360.31L475.701+360.31Z" opacity="1" fill="#ffffff"/>
<path d="M523.931+383.97C525.578+383.796+526.596+383.515+526.986+383.125C527.376+382.735+527.571+382.236+527.571+381.63L527.571+321.05C527.571+320.443+527.376+319.945+526.986+319.555C526.596+319.165+525.578+318.883+523.931+318.71L523.931+317.15L550.711+317.15L550.711+318.71C549.065+318.883+548.046+319.165+547.656+319.555C547.266+319.945+547.071+320.443+547.071+321.05L547.071+381.63C547.071+382.236+547.266+382.735+547.656+383.125C548.046+383.515+549.065+383.796+550.711+383.97L550.711+385.53L523.931+385.53L523.931+383.97Z" opacity="1" fill="#ffffff"/>
<path d="M576.711+321.05C576.711+320.443+576.516+319.945+576.126+319.555C575.736+319.165+574.718+318.883+573.071+318.71L573.071+317.15L604.401+317.15L604.401+318.71C602.928+318.796+601.953+318.991+601.476+319.295C601+319.598+600.761+319.966+600.761+320.4C600.761+320.573+601.325+321.353+602.451+322.74C603.578+324.126+605.051+325.86+606.871+327.94C608.691+330.02+610.75+332.338+613.046+334.895C615.343+337.451+617.661+340.008+620.001+342.565C622.341+345.121+624.595+347.548+626.761+349.845C628.928+352.141+630.791+354.113+632.351+355.76L632.351+321.05C632.351+319.576+631.441+318.796+629.621+318.71L629.621+317.15L653.411+317.15L653.411+318.71C651.765+318.883+650.746+319.165+650.356+319.555C649.966+319.945+649.771+320.443+649.771+321.05L649.771+381.63C649.771+382.236+649.966+382.735+650.356+383.125C650.746+383.515+651.765+383.796+653.411+383.97L653.411+385.53L628.711+385.53L628.711+383.97C629.925+383.97+630.726+383.84+631.116+383.58C631.506+383.32+631.701+382.973+631.701+382.54C631.701+382.28+631.571+381.955+631.311+381.565C631.051+381.175+630.488+380.503+629.621+379.55C628.755+378.596+627.476+377.231+625.786+375.455C624.096+373.678+621.865+371.295+619.091+368.305C616.318+365.315+612.895+361.588+608.821+357.125C604.748+352.661+599.851+347.223+594.131+340.81L594.131+381.63C594.131+382.236+594.326+382.735+594.716+383.125C595.106+383.515+596.125+383.796+597.771+383.97L597.771+385.53L573.071+385.53L573.071+383.97C574.718+383.796+575.736+383.515+576.126+383.125C576.516+382.735+576.711+382.236+576.711+381.63L576.711+321.05Z" opacity="1" fill="#ffffff"/>
</g>
<g opacity="1">
<path d="M143.721+235.162C143.721+234.555+143.526+234.057+143.136+233.667C142.746+233.277+141.728+232.995+140.081+232.822L140.081+231.262L171.411+231.262L171.411+232.822C169.938+232.909+168.963+233.104+168.486+233.407C168.01+233.71+167.771+234.079+167.771+234.512C167.771+234.685+168.335+235.465+169.461+236.852C170.588+238.239+172.061+239.972+173.881+242.052C175.701+244.132+177.76+246.45+180.056+249.007C182.353+251.564+184.671+254.12+187.011+256.677C189.351+259.234+191.605+261.66+193.771+263.957C195.938+266.254+197.801+268.225+199.361+269.872L199.361+235.162C199.361+233.689+198.451+232.909+196.631+232.822L196.631+231.262L220.421+231.262L220.421+232.822C218.775+232.995+217.756+233.277+217.366+233.667C216.976+234.057+216.781+234.555+216.781+235.162L216.781+295.742C216.781+296.349+216.976+296.847+217.366+297.237C217.756+297.627+218.775+297.909+220.421+298.082L220.421+299.642L195.721+299.642L195.721+298.082C196.935+298.082+197.736+297.952+198.126+297.692C198.516+297.432+198.711+297.085+198.711+296.652C198.711+296.392+198.581+296.067+198.321+295.677C198.061+295.287+197.498+294.615+196.631+293.662C195.765+292.709+194.486+291.344+192.796+289.567C191.106+287.79+188.875+285.407+186.101+282.417C183.328+279.427+179.905+275.7+175.831+271.237C171.758+266.774+166.861+261.335+161.141+254.922L161.141+295.742C161.141+296.349+161.336+296.847+161.726+297.237C162.116+297.627+163.135+297.909+164.781+298.082L164.781+299.642L140.081+299.642L140.081+298.082C141.728+297.909+142.746+297.627+143.136+297.237C143.526+296.847+143.721+296.349+143.721+295.742L143.721+235.162Z" opacity="1" fill="#ffffff"/>
<path d="M242.651+298.082C244.298+297.909+245.316+297.627+245.706+297.237C246.096+296.847+246.291+296.349+246.291+295.742L246.291+235.162C246.291+234.555+246.096+234.057+245.706+233.667C245.316+233.277+244.298+232.995+242.651+232.822L242.651+231.262L269.431+231.262L269.431+232.822C267.785+232.995+266.766+233.277+266.376+233.667C265.986+234.057+265.791+234.555+265.791+235.162L265.791+295.742C265.791+296.349+265.986+296.847+266.376+297.237C266.766+297.627+267.785+297.909+269.431+298.082L269.431+299.642L242.651+299.642L242.651+298.082Z" opacity="1" fill="#ffffff"/>
<path d="M354.061+255.572C354.148+255.312+354.213+255.03+354.256+254.727C354.3+254.424+354.321+254.055+354.321+253.622C354.321+252.929+353.736+252.235+352.566+251.542C351.396+250.849+349.836+250.22+347.886+249.657C345.936+249.094+343.705+248.617+341.191+248.227C338.678+247.837+336.035+247.642+333.261+247.642C330.661+247.642+327.931+247.945+325.071+248.552C322.211+249.159+319.59+250.155+317.206+251.542C314.823+252.929+312.873+254.77+311.356+257.067C309.84+259.364+309.081+262.159+309.081+265.452C309.081+268.745+309.84+271.54+311.356+273.837C312.873+276.134+314.823+277.975+317.206+279.362C319.59+280.749+322.211+281.745+325.071+282.352C327.931+282.959+330.661+283.262+333.261+283.262C334.388+283.262+336.165+283.067+338.591+282.677C341.018+282.287+343.445+281.745+345.871+281.052C348.298+280.359+350.443+279.579+352.306+278.712C354.17+277.845+355.101+276.935+355.101+275.982C355.101+275.549+355.015+275.202+354.841+274.942C354.668+274.682+354.495+274.379+354.321+274.032L355.751+273.122L369.141+293.532L367.581+294.442C367.408+294.009+367.17+293.727+366.866+293.597C366.563+293.467+366.195+293.402+365.761+293.402C365.155+293.402+363.941+293.77+362.121+294.507C360.301+295.244+357.94+296.024+355.036+296.847C352.133+297.67+348.731+298.407+344.831+299.057C340.931+299.707+336.555+300.032+331.701+300.032C326.501+300.032+321.345+299.36+316.231+298.017C311.118+296.674+306.525+294.55+302.451+291.647C298.378+288.744+295.085+285.104+292.571+280.727C290.058+276.35+288.801+271.259+288.801+265.452C288.801+259.645+290.058+254.554+292.571+250.177C295.085+245.8+298.378+242.16+302.451+239.257C306.525+236.354+311.118+234.165+316.231+232.692C321.345+231.219+326.501+230.482+331.701+230.482C336.901+230.482+341.386+230.764+345.156+231.327C348.926+231.89+352.111+232.519+354.711+233.212C357.225+233.905+359.175+234.49+360.561+234.967C361.948+235.444+362.988+235.682+363.681+235.682C364.461+235.682+365.111+235.335+365.631+234.642L367.061+235.032L355.361+256.482L354.061+255.572Z" opacity="1" fill="#ffffff"/>
<path d="M436.871+274.682C436.698+273.815+436.33+273.1+435.766+272.537C435.203+271.974+434.271+271.692+432.971+271.692L408.791+271.692L408.791+283.782L450.521+283.782C451.215+283.782+451.735+283.544+452.081+283.067C452.428+282.59+452.688+281.529+452.861+279.882L454.421+279.882L454.421+302.112L452.861+302.112C452.688+300.985+452.428+300.292+452.081+300.032C451.735+299.772+451.215+299.642+450.521+299.642L385.651+299.642L385.651+298.082C387.298+297.909+388.316+297.627+388.706+297.237C389.096+296.847+389.291+296.349+389.291+295.742L389.291+235.162C389.291+234.555+389.096+234.057+388.706+233.667C388.316+233.277+387.298+232.995+385.651+232.822L385.651+231.262L450.521+231.262C451.215+231.262+451.735+231.024+452.081+230.547C452.428+230.07+452.688+229.095+452.861+227.622L454.421+227.622L454.421+250.242L452.861+250.242C452.688+248.769+452.428+247.794+452.081+247.317C451.735+246.84+451.215+246.602+450.521+246.602L408.791+246.602L408.791+257.392L432.971+257.392C434.271+257.392+435.203+257.11+435.766+256.547C436.33+255.984+436.698+255.269+436.871+254.402L438.431+254.402L438.431+274.682L436.871+274.682Z" opacity="1" fill="#ffffff"/>
</g>
</g>
<g id="Layer 3" vectornator:layerName="Layer 3" visibility="hidden">
<g opacity="1">
<path d="M306.307+409.013C306.262+409.149+306.239+409.387+306.239+409.727C306.239+409.954+306.449+410.209+306.868+410.492C307.288+410.776+307.832+411.042+308.5+411.291C309.169+411.541+309.934+411.75+310.795+411.92C311.657+412.09+312.529+412.175+313.413+412.175C315.113+412.175+316.36+411.977+317.153+411.58C317.947+411.184+318.343+410.611+318.343+409.863C318.343+409.455+317.998+409.166+317.306+408.996C316.615+408.826+315.748+408.69+314.705+408.588C313.663+408.486+312.541+408.373+311.339+408.248C310.138+408.124+309.016+407.897+307.973+407.568C306.931+407.24+306.064+406.764+305.372+406.14C304.681+405.517+304.335+404.661+304.335+403.573C304.335+402.712+304.534+401.93+304.93+401.227C305.327+400.525+305.882+399.924+306.596+399.425C307.31+398.927+308.177+398.536+309.197+398.252C310.217+397.969+311.351+397.827+312.597+397.827C313.753+397.827+314.83+397.901+315.827+398.048C316.825+398.196+317.709+398.36+318.479+398.541C319.25+398.723+319.896+398.887+320.417+399.034C320.939+399.182+321.313+399.255+321.539+399.255C321.766+399.255+321.947+399.204+322.083+399.102C322.219+399+322.344+398.881+322.457+398.745L322.831+398.881L320.485+403.607L320.077+403.403L320.077+403.029C320.077+402.825+319.856+402.616+319.414+402.4C318.972+402.185+318.411+401.992+317.731+401.822C317.051+401.652+316.292+401.511+315.453+401.397C314.615+401.284+313.799+401.227+313.005+401.227C311.532+401.227+310.501+401.397+309.911+401.737C309.322+402.077+309.027+402.44+309.027+402.825C309.027+403.211+309.231+403.5+309.639+403.692C310.047+403.885+310.58+404.027+311.237+404.117C311.895+404.208+312.643+404.282+313.481+404.338C314.32+404.395+315.181+404.48+316.065+404.593C316.949+404.707+317.811+404.865+318.649+405.069C319.488+405.273+320.236+405.574+320.893+405.97C321.551+406.367+322.083+406.888+322.491+407.534C322.899+408.18+323.103+408.991+323.103+409.965C323.103+410.713+322.95+411.45+322.644+412.175C322.338+412.901+321.817+413.552+321.08+414.13C320.344+414.708+319.358+415.167+318.122+415.507C316.887+415.847+315.351+416.017+313.515+416.017C312.087+416.017+310.858+415.949+309.826+415.813C308.795+415.677+307.917+415.513+307.191+415.32C306.466+415.128+305.894+414.952+305.474+414.793C305.055+414.635+304.743+414.555+304.539+414.555C304.403+414.555+304.284+414.601+304.182+414.691C304.08+414.782+303.973+414.884+303.859+414.997L303.451+414.895L305.967+408.843L306.307+409.013Z" opacity="1" fill="#000000"/>
<path d="M347.481+414.895C347.481+415.054+347.532+415.184+347.634+415.286C347.736+415.388+348.003+415.462+348.433+415.507L348.433+415.915L341.429+415.915L341.429+415.507C341.86+415.462+342.126+415.388+342.228+415.286C342.33+415.184+342.381+415.054+342.381+414.895L342.381+408.605L333.541+408.605L333.541+414.895C333.541+415.054+333.592+415.184+333.694+415.286C333.796+415.388+334.063+415.462+334.493+415.507L334.493+415.915L327.489+415.915L327.489+415.507C327.92+415.462+328.186+415.388+328.288+415.286C328.39+415.184+328.441+415.054+328.441+414.895L328.441+399.051C328.441+398.893+328.39+398.762+328.288+398.66C328.186+398.558+327.92+398.485+327.489+398.439L327.489+398.031L334.493+398.031L334.493+398.439C334.063+398.485+333.796+398.558+333.694+398.66C333.592+398.762+333.541+398.893+333.541+399.051L333.541+404.457L342.381+404.457L342.381+399.051C342.381+398.893+342.33+398.762+342.228+398.66C342.126+398.558+341.86+398.485+341.429+398.439L341.429+398.031L348.433+398.031L348.433+398.439C348.003+398.485+347.736+398.558+347.634+398.66C347.532+398.762+347.481+398.893+347.481+399.051L347.481+414.895Z" opacity="1" fill="#000000"/>
<path d="M365.705+405.579C366.703+405.579+367.388+405.392+367.762+405.018C368.136+404.644+368.323+404.208+368.323+403.709C368.323+403.211+368.136+402.774+367.762+402.4C367.388+402.026+366.703+401.839+365.705+401.839L359.993+401.839L359.993+405.579L365.705+405.579ZM359.993+414.895C359.993+415.054+360.044+415.184+360.146+415.286C360.248+415.388+360.515+415.462+360.945+415.507L360.945+415.915L353.941+415.915L353.941+415.507C354.372+415.462+354.638+415.388+354.74+415.286C354.842+415.184+354.893+415.054+354.893+414.895L354.893+399.051C354.893+398.893+354.842+398.762+354.74+398.66C354.638+398.558+354.372+398.485+353.941+398.439L353.941+398.031L366.385+398.031C368.901+398.031+370.726+398.49+371.859+399.408C372.993+400.326+373.559+401.749+373.559+403.675C373.559+405.239+373.1+406.463+372.182+407.347C371.264+408.231+370.103+408.866+368.697+409.251L372.709+414.895C372.981+415.303+373.31+415.507+373.695+415.507L373.695+415.915L366.623+415.915L366.623+415.507C367.122+415.485+367.371+415.281+367.371+414.895C367.371+414.85+367.281+414.691+367.099+414.419C366.918+414.147+366.691+413.819+366.419+413.433C366.147+413.048+365.847+412.634+365.518+412.192C365.19+411.75+364.872+411.325+364.566+410.917C364.26+410.509+363.994+410.147+363.767+409.829C363.541+409.512+363.393+409.297+363.325+409.183L359.993+409.183L359.993+414.895Z" opacity="1" fill="#000000"/>
<path d="M378.863+415.507C379.294+415.462+379.56+415.388+379.662+415.286C379.764+415.184+379.815+415.054+379.815+414.895L379.815+399.051C379.815+398.893+379.764+398.762+379.662+398.66C379.56+398.558+379.294+398.485+378.863+398.439L378.863+398.031L385.867+398.031L385.867+398.439C385.437+398.485+385.17+398.558+385.068+398.66C384.966+398.762+384.915+398.893+384.915+399.051L384.915+414.895C384.915+415.054+384.966+415.184+385.068+415.286C385.17+415.388+385.437+415.462+385.867+415.507L385.867+415.915L378.863+415.915L378.863+415.507Z" opacity="1" fill="#000000"/>
<path d="M407.831+415.507C408.262+415.462+408.528+415.388+408.63+415.286C408.732+415.184+408.783+415.054+408.783+414.895L408.783+402.383L408.715+402.315L402.663+415.507L396.679+402.179L396.611+402.179L396.611+414.895C396.611+415.054+396.662+415.184+396.764+415.286C396.866+415.388+397.133+415.462+397.563+415.507L397.563+415.915L391.579+415.915L391.579+415.507C392.01+415.462+392.276+415.388+392.378+415.286C392.48+415.184+392.531+415.054+392.531+414.895L392.531+399.051C392.531+398.893+392.48+398.762+392.378+398.66C392.276+398.558+392.01+398.485+391.579+398.439L391.579+398.031L400.453+398.031L400.453+398.439C399.909+398.462+399.637+398.666+399.637+399.051C399.637+399.074+399.705+399.255+399.841+399.595C399.977+399.935+400.153+400.355+400.368+400.853C400.584+401.352+400.822+401.89+401.082+402.468C401.343+403.046+401.592+403.602+401.83+404.134C402.068+404.667+402.278+405.137+402.459+405.545C402.641+405.953+402.765+406.225+402.833+406.361C403.219+405.5+403.615+404.661+404.023+403.845C404.431+403.029+404.8+402.281+405.128+401.601C405.457+400.921+405.723+400.355+405.927+399.901C406.131+399.448+406.233+399.165+406.233+399.051C406.233+398.666+405.961+398.462+405.417+398.439L405.417+398.031L414.631+398.031L414.631+398.439C414.201+398.485+413.934+398.558+413.832+398.66C413.73+398.762+413.679+398.893+413.679+399.051L413.679+414.895C413.679+415.054+413.73+415.184+413.832+415.286C413.934+415.388+414.201+415.462+414.631+415.507L414.631+415.915L407.831+415.915L407.831+415.507Z" opacity="1" fill="#000000"/>
<path d="M431.257+405.749C432.209+405.749+432.906+405.591+433.348+405.273C433.79+404.956+434.011+404.435+434.011+403.709C434.011+403.052+433.79+402.576+433.348+402.281C432.906+401.987+432.209+401.839+431.257+401.839L426.089+401.839L426.089+405.749L431.257+405.749ZM426.089+414.895C426.089+415.054+426.14+415.184+426.242+415.286C426.344+415.388+426.611+415.462+427.041+415.507L427.041+415.915L420.037+415.915L420.037+415.507C420.468+415.462+420.734+415.388+420.836+415.286C420.938+415.184+420.989+415.054+420.989+414.895L420.989+399.051C420.989+398.893+420.938+398.762+420.836+398.66C420.734+398.558+420.468+398.485+420.037+398.439L420.037+398.031L432.209+398.031C433.275+398.031+434.215+398.184+435.031+398.49C435.847+398.796+436.527+399.21+437.071+399.731C437.615+400.253+438.023+400.859+438.295+401.55C438.567+402.242+438.703+402.961+438.703+403.709C438.703+404.457+438.567+405.177+438.295+405.868C438.023+406.56+437.615+407.16+437.071+407.67C436.527+408.18+435.847+408.588+435.031+408.894C434.215+409.2+433.275+409.353+432.209+409.353L426.089+409.353L426.089+414.895Z" opacity="1" fill="#000000"/>
<path d="M464.781+412.311C466.005+412.311+466.867+412.158+467.365+411.852C467.864+411.546+468.113+411.019+468.113+410.271C468.113+409.523+467.864+408.996+467.365+408.69C466.867+408.384+466.005+408.231+464.781+408.231L459.001+408.231L459.001+412.311L464.781+412.311ZM463.625+404.763C464.351+404.763+464.951+404.746+465.427+404.712C465.903+404.678+466.277+404.605+466.549+404.491C466.821+404.378+467.014+404.219+467.127+404.015C467.241+403.811+467.297+403.539+467.297+403.199C467.297+402.859+467.241+402.587+467.127+402.383C467.014+402.179+466.821+402.021+466.549+401.907C466.277+401.794+465.903+401.72+465.427+401.686C464.951+401.652+464.351+401.635+463.625+401.635L459.001+401.635L459.001+404.763L463.625+404.763ZM453.901+399.051C453.901+398.893+453.85+398.762+453.748+398.66C453.646+398.558+453.38+398.485+452.949+398.439L452.949+398.031L465.903+398.031C466.833+398.031+467.683+398.122+468.453+398.303C469.224+398.485+469.893+398.762+470.459+399.136C471.026+399.51+471.468+399.998+471.785+400.598C472.103+401.199+472.261+401.919+472.261+402.757C472.261+403.777+471.955+404.599+471.343+405.222C470.731+405.846+469.949+406.259+468.997+406.463L468.997+406.531C470.153+406.849+471.1+407.336+471.836+407.993C472.573+408.651+472.941+409.614+472.941+410.883C472.941+411.563+472.811+412.209+472.55+412.821C472.29+413.433+471.882+413.966+471.326+414.419C470.771+414.873+470.057+415.235+469.184+415.507C468.312+415.779+467.275+415.915+466.073+415.915L452.949+415.915L452.949+415.507C453.38+415.462+453.646+415.388+453.748+415.286C453.85+415.184+453.901+415.054+453.901+414.895L453.901+399.051Z" opacity="1" fill="#000000"/>
<path d="M489.397+405.579C490.395+405.579+491.08+405.392+491.454+405.018C491.828+404.644+492.015+404.208+492.015+403.709C492.015+403.211+491.828+402.774+491.454+402.4C491.08+402.026+490.395+401.839+489.397+401.839L483.685+401.839L483.685+405.579L489.397+405.579ZM483.685+414.895C483.685+415.054+483.736+415.184+483.838+415.286C483.94+415.388+484.207+415.462+484.637+415.507L484.637+415.915L477.633+415.915L477.633+415.507C478.064+415.462+478.33+415.388+478.432+415.286C478.534+415.184+478.585+415.054+478.585+414.895L478.585+399.051C478.585+398.893+478.534+398.762+478.432+398.66C478.33+398.558+478.064+398.485+477.633+398.439L477.633+398.031L490.077+398.031C492.593+398.031+494.418+398.49+495.551+399.408C496.685+400.326+497.251+401.749+497.251+403.675C497.251+405.239+496.792+406.463+495.874+407.347C494.956+408.231+493.795+408.866+492.389+409.251L496.401+414.895C496.673+415.303+497.002+415.507+497.387+415.507L497.387+415.915L490.315+415.915L490.315+415.507C490.814+415.485+491.063+415.281+491.063+414.895C491.063+414.85+490.973+414.691+490.791+414.419C490.61+414.147+490.383+413.819+490.111+413.433C489.839+413.048+489.539+412.634+489.21+412.192C488.882+411.75+488.564+411.325+488.258+410.917C487.952+410.509+487.686+410.147+487.459+409.829C487.233+409.512+487.085+409.297+487.017+409.183L483.685+409.183L483.685+414.895Z" opacity="1" fill="#000000"/>
<path d="M502.555+415.507C502.986+415.462+503.252+415.388+503.354+415.286C503.456+415.184+503.507+415.054+503.507+414.895L503.507+399.051C503.507+398.893+503.456+398.762+503.354+398.66C503.252+398.558+502.986+398.485+502.555+398.439L502.555+398.031L509.559+398.031L509.559+398.439C509.129+398.485+508.862+398.558+508.76+398.66C508.658+398.762+508.607+398.893+508.607+399.051L508.607+414.895C508.607+415.054+508.658+415.184+508.76+415.286C508.862+415.388+509.129+415.462+509.559+415.507L509.559+415.915L502.555+415.915L502.555+415.507Z" opacity="1" fill="#000000"/>
<path d="M525.777+411.903C527.568+411.903+528.86+411.444+529.653+410.526C530.447+409.608+530.843+408.424+530.843+406.973C530.843+405.523+530.447+404.338+529.653+403.42C528.86+402.502+527.568+402.043+525.777+402.043L521.459+402.043L521.459+411.903L525.777+411.903ZM516.359+399.051C516.359+398.893+516.308+398.762+516.206+398.66C516.104+398.558+515.838+398.485+515.407+398.439L515.407+398.031L526.695+398.031C528.259+398.031+529.619+398.258+530.775+398.711C531.931+399.165+532.883+399.794+533.631+400.598C534.379+401.403+534.94+402.349+535.314+403.437C535.688+404.525+535.875+405.704+535.875+406.973C535.875+408.129+535.677+409.246+535.28+410.322C534.884+411.399+534.283+412.351+533.478+413.178C532.674+414.006+531.676+414.669+530.486+415.167C529.296+415.666+527.908+415.915+526.321+415.915L515.407+415.915L515.407+415.507C515.838+415.462+516.104+415.388+516.206+415.286C516.308+415.184+516.359+415.054+516.359+414.895L516.359+399.051Z" opacity="1" fill="#000000"/>
<path d="M550.563+409.421C550.382+409.421+550.257+409.484+550.189+409.608C550.121+409.733+550.076+409.897+550.053+410.101L549.645+410.101L549.645+405.341L550.053+405.341C550.099+405.749+550.269+405.953+550.563+405.953L560.593+405.953L560.593+406.361C560.231+406.384+560.049+406.577+560.049+406.939L560.049+412.583C560.049+412.742+560.072+412.878+560.117+412.991C560.163+413.105+560.276+413.161+560.457+413.161L560.627+413.161L560.627+413.569C557.545+415.201+553.895+416.017+549.679+416.017C548.251+416.017+546.874+415.842+545.548+415.49C544.222+415.139+543.049+414.589+542.029+413.841C541.009+413.093+540.188+412.147+539.564+411.002C538.941+409.858+538.629+408.515+538.629+406.973C538.629+405.432+538.941+404.089+539.564+402.944C540.188+401.8+541.009+400.848+542.029+400.088C543.049+399.329+544.222+398.762+545.548+398.388C546.874+398.014+548.251+397.827+549.679+397.827C550.246+397.827+550.745+397.839+551.175+397.861C551.606+397.884+552.025+397.929+552.433+397.997C552.841+398.065+553.261+398.15+553.691+398.252C554.122+398.354+554.632+398.485+555.221+398.643C555.788+398.802+556.309+398.989+556.785+399.204C557.261+399.42+557.567+399.527+557.703+399.527C557.885+399.527+558.043+399.437+558.179+399.255L558.587+399.391L556.377+403.879L555.969+403.641C556.015+403.505+556.037+403.381+556.037+403.267C556.037+403.109+555.845+402.933+555.459+402.74C555.074+402.548+554.587+402.372+553.997+402.213C553.408+402.055+552.745+401.919+552.008+401.805C551.272+401.692+550.552+401.635+549.849+401.635C549.033+401.635+548.257+401.743+547.52+401.958C546.784+402.174+546.126+402.508+545.548+402.961C544.97+403.415+544.511+403.976+544.171+404.644C543.831+405.313+543.661+406.112+543.661+407.041C543.661+407.948+543.865+408.736+544.273+409.404C544.681+410.073+545.197+410.623+545.82+411.053C546.444+411.484+547.141+411.801+547.911+412.005C548.682+412.209+549.441+412.311+550.189+412.311C551.141+412.311+551.997+412.255+552.756+412.141C553.516+412.028+554.247+411.869+554.949+411.665L554.949+409.421L550.563+409.421Z" opacity="1" fill="#000000"/>
<path d="M577.899+409.387C577.854+409.161+577.758+408.974+577.61+408.826C577.463+408.679+577.219+408.605+576.879+408.605L570.555+408.605L570.555+411.767L581.469+411.767C581.651+411.767+581.787+411.705+581.877+411.58C581.968+411.456+582.036+411.178+582.081+410.747L582.489+410.747L582.489+416.561L582.081+416.561C582.036+416.267+581.968+416.085+581.877+416.017C581.787+415.949+581.651+415.915+581.469+415.915L564.503+415.915L564.503+415.507C564.934+415.462+565.2+415.388+565.302+415.286C565.404+415.184+565.455+415.054+565.455+414.895L565.455+399.051C565.455+398.893+565.404+398.762+565.302+398.66C565.2+398.558+564.934+398.485+564.503+398.439L564.503+398.031L581.469+398.031C581.651+398.031+581.787+397.969+581.877+397.844C581.968+397.72+582.036+397.465+582.081+397.079L582.489+397.079L582.489+402.995L582.081+402.995C582.036+402.61+581.968+402.355+581.877+402.23C581.787+402.106+581.651+402.043+581.469+402.043L570.555+402.043L570.555+404.865L576.879+404.865C577.219+404.865+577.463+404.792+577.61+404.644C577.758+404.497+577.854+404.31+577.899+404.083L578.307+404.083L578.307+409.387L577.899+409.387Z" opacity="1" fill="#000000"/>
<path d="M609.247+412.311C610.471+412.311+611.333+412.158+611.831+411.852C612.33+411.546+612.579+411.019+612.579+410.271C612.579+409.523+612.33+408.996+611.831+408.69C611.333+408.384+610.471+408.231+609.247+408.231L603.467+408.231L603.467+412.311L609.247+412.311ZM608.091+404.763C608.817+404.763+609.417+404.746+609.893+404.712C610.369+404.678+610.743+404.605+611.015+404.491C611.287+404.378+611.48+404.219+611.593+404.015C611.707+403.811+611.763+403.539+611.763+403.199C611.763+402.859+611.707+402.587+611.593+402.383C611.48+402.179+611.287+402.021+611.015+401.907C610.743+401.794+610.369+401.72+609.893+401.686C609.417+401.652+608.817+401.635+608.091+401.635L603.467+401.635L603.467+404.763L608.091+404.763ZM598.367+399.051C598.367+398.893+598.316+398.762+598.214+398.66C598.112+398.558+597.846+398.485+597.415+398.439L597.415+398.031L610.369+398.031C611.299+398.031+612.149+398.122+612.919+398.303C613.69+398.485+614.359+398.762+614.925+399.136C615.492+399.51+615.934+399.998+616.251+400.598C616.569+401.199+616.727+401.919+616.727+402.757C616.727+403.777+616.421+404.599+615.809+405.222C615.197+405.846+614.415+406.259+613.463+406.463L613.463+406.531C614.619+406.849+615.566+407.336+616.302+407.993C617.039+408.651+617.407+409.614+617.407+410.883C617.407+411.563+617.277+412.209+617.016+412.821C616.756+413.433+616.348+413.966+615.792+414.419C615.237+414.873+614.523+415.235+613.65+415.507C612.778+415.779+611.741+415.915+610.539+415.915L597.415+415.915L597.415+415.507C597.846+415.462+598.112+415.388+598.214+415.286C598.316+415.184+598.367+415.054+598.367+414.895L598.367+399.051Z" opacity="1" fill="#000000"/>
<path d="M622.507+409.557C622.485+409.671+622.468+409.773+622.456+409.863C622.445+409.954+622.439+410.022+622.439+410.067C622.439+410.475+622.638+410.81+623.034+411.07C623.431+411.331+623.89+411.541+624.411+411.699C624.933+411.858+625.454+411.966+625.975+412.022C626.497+412.079+626.882+412.107+627.131+412.107C628.106+412.107+628.746+411.892+629.052+411.461C629.358+411.031+629.511+410.385+629.511+409.523L629.511+399.051C629.511+398.893+629.46+398.762+629.358+398.66C629.256+398.558+628.99+398.485+628.559+398.439L628.559+398.031L635.563+398.031L635.563+398.439C635.133+398.485+634.866+398.558+634.764+398.66C634.662+398.762+634.611+398.893+634.611+399.051L634.611+410.373C634.611+411.575+634.413+412.549+634.016+413.297C633.62+414.045+633.076+414.623+632.384+415.031C631.693+415.439+630.883+415.706+629.953+415.83C629.024+415.955+628.027+416.017+626.961+416.017C626.145+416.017+625.397+415.972+624.717+415.881C624.037+415.791+623.442+415.677+622.932+415.541C622.422+415.405+622.009+415.281+621.691+415.167C621.374+415.054+621.17+414.997+621.079+414.997C620.898+414.997+620.768+415.031+620.688+415.099C620.609+415.167+620.479+415.281+620.297+415.439L619.787+415.133L622.099+409.421L622.507+409.557Z" opacity="1" fill="#000000"/>
<path d="M641.411+409.557C641.389+409.671+641.372+409.773+641.36+409.863C641.349+409.954+641.343+410.022+641.343+410.067C641.343+410.475+641.542+410.81+641.938+411.07C642.335+411.331+642.794+411.541+643.315+411.699C643.837+411.858+644.358+411.966+644.879+412.022C645.401+412.079+645.786+412.107+646.035+412.107C647.01+412.107+647.65+411.892+647.956+411.461C648.262+411.031+648.415+410.385+648.415+409.523L648.415+399.051C648.415+398.893+648.364+398.762+648.262+398.66C648.16+398.558+647.894+398.485+647.463+398.439L647.463+398.031L654.467+398.031L654.467+398.439C654.037+398.485+653.77+398.558+653.668+398.66C653.566+398.762+653.515+398.893+653.515+399.051L653.515+410.373C653.515+411.575+653.317+412.549+652.92+413.297C652.524+414.045+651.98+414.623+651.288+415.031C650.597+415.439+649.787+415.706+648.857+415.83C647.928+415.955+646.931+416.017+645.865+416.017C645.049+416.017+644.301+415.972+643.621+415.881C642.941+415.791+642.346+415.677+641.836+415.541C641.326+415.405+640.913+415.281+640.595+415.167C640.278+415.054+640.074+414.997+639.983+414.997C639.802+414.997+639.672+415.031+639.592+415.099C639.513+415.167+639.383+415.281+639.201+415.439L638.691+415.133L641.003+409.421L641.411+409.557Z" opacity="1" fill="#000000"/>
</g>
</g>
<g id="Layer 4" vectornator:layerName="Layer 4" visibility="hidden">
<g opacity="1">
<path d="M137.987+408.749C137.952+408.853+137.935+409.035+137.935+409.295C137.935+409.469+138.095+409.664+138.416+409.88C138.736+410.097+139.152+410.301+139.664+410.491C140.175+410.682+140.76+410.842+141.419+410.972C142.077+411.102+142.745+411.167+143.421+411.167C144.721+411.167+145.674+411.016+146.281+410.712C146.887+410.409+147.191+409.971+147.191+409.399C147.191+409.087+146.926+408.866+146.398+408.736C145.869+408.606+145.206+408.502+144.409+408.424C143.611+408.346+142.753+408.26+141.835+408.164C140.916+408.069+140.058+407.896+139.261+407.644C138.463+407.393+137.8+407.029+137.272+406.552C136.743+406.076+136.479+405.421+136.479+404.589C136.479+403.931+136.63+403.333+136.934+402.795C137.237+402.258+137.662+401.799+138.208+401.417C138.754+401.036+139.417+400.737+140.197+400.52C140.977+400.304+141.843+400.195+142.797+400.195C143.681+400.195+144.504+400.252+145.267+400.364C146.029+400.477+146.705+400.603+147.295+400.741C147.884+400.88+148.378+401.006+148.777+401.118C149.175+401.231+149.461+401.287+149.635+401.287C149.808+401.287+149.947+401.248+150.051+401.17C150.155+401.092+150.25+401.001+150.337+400.897L150.623+401.001L148.829+404.615L148.517+404.459L148.517+404.173C148.517+404.017+148.348+403.857+148.01+403.692C147.672+403.528+147.243+403.38+146.723+403.25C146.203+403.12+145.622+403.012+144.981+402.925C144.339+402.839+143.715+402.795+143.109+402.795C141.982+402.795+141.193+402.925+140.743+403.185C140.292+403.445+140.067+403.723+140.067+404.017C140.067+404.312+140.223+404.533+140.535+404.68C140.847+404.828+141.254+404.936+141.757+405.005C142.259+405.075+142.831+405.131+143.473+405.174C144.114+405.218+144.773+405.283+145.449+405.369C146.125+405.456+146.783+405.577+147.425+405.733C148.066+405.889+148.638+406.119+149.141+406.422C149.643+406.726+150.051+407.124+150.363+407.618C150.675+408.112+150.831+408.732+150.831+409.477C150.831+410.049+150.714+410.613+150.48+411.167C150.246+411.722+149.847+412.22+149.284+412.662C148.72+413.104+147.966+413.455+147.022+413.715C146.077+413.975+144.903+414.105+143.499+414.105C142.407+414.105+141.466+414.053+140.678+413.949C139.889+413.845+139.217+413.72+138.663+413.572C138.108+413.425+137.67+413.291+137.35+413.169C137.029+413.048+136.791+412.987+136.635+412.987C136.531+412.987+136.44+413.022+136.362+413.091C136.284+413.161+136.201+413.239+136.115+413.325L135.803+413.247L137.727+408.619L137.987+408.749Z" opacity="1" fill="#000000"/>
<path d="M169.473+413.247C169.473+413.369+169.512+413.468+169.59+413.546C169.668+413.624+169.871+413.681+170.201+413.715L170.201+414.027L164.845+414.027L164.845+413.715C165.174+413.681+165.378+413.624+165.456+413.546C165.534+413.468+165.573+413.369+165.573+413.247L165.573+408.437L158.813+408.437L158.813+413.247C158.813+413.369+158.852+413.468+158.93+413.546C159.008+413.624+159.211+413.681+159.541+413.715L159.541+414.027L154.185+414.027L154.185+413.715C154.514+413.681+154.718+413.624+154.796+413.546C154.874+413.468+154.913+413.369+154.913+413.247L154.913+401.131C154.913+401.01+154.874+400.91+154.796+400.832C154.718+400.754+154.514+400.698+154.185+400.663L154.185+400.351L159.541+400.351L159.541+400.663C159.211+400.698+159.008+400.754+158.93+400.832C158.852+400.91+158.813+401.01+158.813+401.131L158.813+405.265L165.573+405.265L165.573+401.131C165.573+401.01+165.534+400.91+165.456+400.832C165.378+400.754+165.174+400.698+164.845+400.663L164.845+400.351L170.201+400.351L170.201+400.663C169.871+400.698+169.668+400.754+169.59+400.832C169.512+400.91+169.473+401.01+169.473+401.131L169.473+413.247Z" opacity="1" fill="#000000"/>
<path d="M183.409+406.123C184.171+406.123+184.696+405.98+184.982+405.694C185.268+405.408+185.411+405.075+185.411+404.693C185.411+404.312+185.268+403.978+184.982+403.692C184.696+403.406+184.171+403.263+183.409+403.263L179.041+403.263L179.041+406.123L183.409+406.123ZM179.041+413.247C179.041+413.369+179.08+413.468+179.158+413.546C179.236+413.624+179.439+413.681+179.769+413.715L179.769+414.027L174.413+414.027L174.413+413.715C174.742+413.681+174.946+413.624+175.024+413.546C175.102+413.468+175.141+413.369+175.141+413.247L175.141+401.131C175.141+401.01+175.102+400.91+175.024+400.832C174.946+400.754+174.742+400.698+174.413+400.663L174.413+400.351L183.929+400.351C185.853+400.351+187.248+400.702+188.115+401.404C188.981+402.106+189.415+403.194+189.415+404.667C189.415+405.863+189.064+406.799+188.362+407.475C187.66+408.151+186.771+408.637+185.697+408.931L188.765+413.247C188.973+413.559+189.224+413.715+189.519+413.715L189.519+414.027L184.111+414.027L184.111+413.715C184.492+413.698+184.683+413.542+184.683+413.247C184.683+413.213+184.613+413.091+184.475+412.883C184.336+412.675+184.163+412.424+183.955+412.129C183.747+411.835+183.517+411.518+183.266+411.18C183.014+410.842+182.772+410.517+182.538+410.205C182.304+409.893+182.1+409.616+181.927+409.373C181.753+409.131+181.641+408.966+181.589+408.879L179.041+408.879L179.041+413.247Z" opacity="1" fill="#000000"/>
<path d="M193.471+413.715C193.8+413.681+194.004+413.624+194.082+413.546C194.16+413.468+194.199+413.369+194.199+413.247L194.199+401.131C194.199+401.01+194.16+400.91+194.082+400.832C194.004+400.754+193.8+400.698+193.471+400.663L193.471+400.351L198.827+400.351L198.827+400.663C198.497+400.698+198.294+400.754+198.216+400.832C198.138+400.91+198.099+401.01+198.099+401.131L198.099+413.247C198.099+413.369+198.138+413.468+198.216+413.546C198.294+413.624+198.497+413.681+198.827+413.715L198.827+414.027L193.471+414.027L193.471+413.715Z" opacity="1" fill="#000000"/>
<path d="M215.623+413.715C215.952+413.681+216.156+413.624+216.234+413.546C216.312+413.468+216.351+413.369+216.351+413.247L216.351+403.679L216.299+403.627L211.671+413.715L207.095+403.523L207.043+403.523L207.043+413.247C207.043+413.369+207.082+413.468+207.16+413.546C207.238+413.624+207.441+413.681+207.771+413.715L207.771+414.027L203.195+414.027L203.195+413.715C203.524+413.681+203.728+413.624+203.806+413.546C203.884+413.468+203.923+413.369+203.923+413.247L203.923+401.131C203.923+401.01+203.884+400.91+203.806+400.832C203.728+400.754+203.524+400.698+203.195+400.663L203.195+400.351L209.981+400.351L209.981+400.663C209.565+400.681+209.357+400.837+209.357+401.131C209.357+401.149+209.409+401.287+209.513+401.547C209.617+401.807+209.751+402.128+209.916+402.509C210.08+402.891+210.262+403.302+210.462+403.744C210.661+404.186+210.852+404.611+211.034+405.018C211.216+405.426+211.376+405.785+211.515+406.097C211.653+406.409+211.749+406.617+211.801+406.721C212.095+406.063+212.399+405.421+212.711+404.797C213.023+404.173+213.304+403.601+213.556+403.081C213.807+402.561+214.011+402.128+214.167+401.781C214.323+401.435+214.401+401.218+214.401+401.131C214.401+400.837+214.193+400.681+213.777+400.663L213.777+400.351L220.823+400.351L220.823+400.663C220.493+400.698+220.29+400.754+220.212+400.832C220.134+400.91+220.095+401.01+220.095+401.131L220.095+413.247C220.095+413.369+220.134+413.468+220.212+413.546C220.29+413.624+220.493+413.681+220.823+413.715L220.823+414.027L215.623+414.027L215.623+413.715Z" opacity="1" fill="#000000"/>
<path d="M233.537+406.253C234.265+406.253+234.798+406.132+235.136+405.889C235.474+405.647+235.643+405.248+235.643+404.693C235.643+404.191+235.474+403.827+235.136+403.601C234.798+403.376+234.265+403.263+233.537+403.263L229.585+403.263L229.585+406.253L233.537+406.253ZM229.585+413.247C229.585+413.369+229.624+413.468+229.702+413.546C229.78+413.624+229.983+413.681+230.313+413.715L230.313+414.027L224.957+414.027L224.957+413.715C225.286+413.681+225.49+413.624+225.568+413.546C225.646+413.468+225.685+413.369+225.685+413.247L225.685+401.131C225.685+401.01+225.646+400.91+225.568+400.832C225.49+400.754+225.286+400.698+224.957+400.663L224.957+400.351L234.265+400.351C235.079+400.351+235.799+400.468+236.423+400.702C237.047+400.936+237.567+401.253+237.983+401.651C238.399+402.05+238.711+402.514+238.919+403.042C239.127+403.571+239.231+404.121+239.231+404.693C239.231+405.265+239.127+405.816+238.919+406.344C238.711+406.873+238.399+407.332+237.983+407.722C237.567+408.112+237.047+408.424+236.423+408.658C235.799+408.892+235.079+409.009+234.265+409.009L229.585+409.009L229.585+413.247Z" opacity="1" fill="#000000"/>
</g>
<g opacity="1">
<path d="M422.008+410.097C422.944+410.097+423.602+409.98+423.984+409.746C424.365+409.512+424.556+409.109+424.556+408.537C424.556+407.965+424.365+407.562+423.984+407.328C423.602+407.094+422.944+406.977+422.008+406.977L417.588+406.977L417.588+410.097L422.008+410.097ZM421.124+404.325C421.678+404.325+422.138+404.312+422.502+404.286C422.866+404.26+423.152+404.204+423.36+404.117C423.568+404.031+423.715+403.909+423.802+403.753C423.888+403.597+423.932+403.389+423.932+403.129C423.932+402.869+423.888+402.661+423.802+402.505C423.715+402.349+423.568+402.228+423.36+402.141C423.152+402.055+422.866+401.998+422.502+401.972C422.138+401.946+421.678+401.933+421.124+401.933L417.588+401.933L417.588+404.325L421.124+404.325ZM413.688+399.957C413.688+399.836+413.649+399.736+413.571+399.658C413.493+399.58+413.289+399.524+412.96+399.489L412.96+399.177L422.866+399.177C423.576+399.177+424.226+399.247+424.816+399.385C425.405+399.524+425.916+399.736+426.35+400.022C426.783+400.308+427.121+400.681+427.364+401.14C427.606+401.6+427.728+402.15+427.728+402.791C427.728+403.571+427.494+404.2+427.026+404.676C426.558+405.153+425.96+405.469+425.232+405.625L425.232+405.677C426.116+405.92+426.839+406.293+427.403+406.795C427.966+407.298+428.248+408.035+428.248+409.005C428.248+409.525+428.148+410.019+427.949+410.487C427.749+410.955+427.437+411.363+427.013+411.709C426.588+412.056+426.042+412.333+425.375+412.541C424.707+412.749+423.914+412.853+422.996+412.853L412.96+412.853L412.96+412.541C413.289+412.507+413.493+412.45+413.571+412.372C413.649+412.294+413.688+412.195+413.688+412.073L413.688+399.957Z" opacity="1" fill="#000000"/>
<path d="M440.832+404.949C441.594+404.949+442.119+404.806+442.405+404.52C442.691+404.234+442.834+403.901+442.834+403.519C442.834+403.138+442.691+402.804+442.405+402.518C442.119+402.232+441.594+402.089+440.832+402.089L436.464+402.089L436.464+404.949L440.832+404.949ZM436.464+412.073C436.464+412.195+436.503+412.294+436.581+412.372C436.659+412.45+436.862+412.507+437.192+412.541L437.192+412.853L431.836+412.853L431.836+412.541C432.165+412.507+432.369+412.45+432.447+412.372C432.525+412.294+432.564+412.195+432.564+412.073L432.564+399.957C432.564+399.836+432.525+399.736+432.447+399.658C432.369+399.58+432.165+399.524+431.836+399.489L431.836+399.177L441.352+399.177C443.276+399.177+444.671+399.528+445.538+400.23C446.404+400.932+446.838+402.02+446.838+403.493C446.838+404.689+446.487+405.625+445.785+406.301C445.083+406.977+444.194+407.463+443.12+407.757L446.188+412.073C446.396+412.385+446.647+412.541+446.942+412.541L446.942+412.853L441.534+412.853L441.534+412.541C441.915+412.524+442.106+412.368+442.106+412.073C442.106+412.039+442.036+411.917+441.898+411.709C441.759+411.501+441.586+411.25+441.378+410.955C441.17+410.661+440.94+410.344+440.689+410.006C440.437+409.668+440.195+409.343+439.961+409.031C439.727+408.719+439.523+408.442+439.35+408.199C439.176+407.957+439.064+407.792+439.012+407.705L436.464+407.705L436.464+412.073Z" opacity="1" fill="#000000"/>
<path d="M450.894+412.541C451.223+412.507+451.427+412.45+451.505+412.372C451.583+412.294+451.622+412.195+451.622+412.073L451.622+399.957C451.622+399.836+451.583+399.736+451.505+399.658C451.427+399.58+451.223+399.524+450.894+399.489L450.894+399.177L456.25+399.177L456.25+399.489C455.92+399.524+455.717+399.58+455.639+399.658C455.561+399.736+455.522+399.836+455.522+399.957L455.522+412.073C455.522+412.195+455.561+412.294+455.639+412.372C455.717+412.45+455.92+412.507+456.25+412.541L456.25+412.853L450.894+412.853L450.894+412.541Z" opacity="1" fill="#000000"/>
<path d="M468.652+409.785C470.021+409.785+471.009+409.434+471.616+408.732C472.222+408.03+472.526+407.125+472.526+406.015C472.526+404.906+472.222+404+471.616+403.298C471.009+402.596+470.021+402.245+468.652+402.245L465.35+402.245L465.35+409.785L468.652+409.785ZM461.45+399.957C461.45+399.836+461.411+399.736+461.333+399.658C461.255+399.58+461.051+399.524+460.722+399.489L460.722+399.177L469.354+399.177C470.55+399.177+471.59+399.351+472.474+399.697C473.358+400.044+474.086+400.525+474.658+401.14C475.23+401.756+475.659+402.479+475.945+403.311C476.231+404.143+476.374+405.045+476.374+406.015C476.374+406.899+476.222+407.753+475.919+408.576C475.615+409.4+475.156+410.128+474.541+410.76C473.925+411.393+473.163+411.9+472.253+412.281C471.343+412.663+470.281+412.853+469.068+412.853L460.722+412.853L460.722+412.541C461.051+412.507+461.255+412.45+461.333+412.372C461.411+412.294+461.45+412.195+461.45+412.073L461.45+399.957Z" opacity="1" fill="#000000"/>
<path d="M487.606+407.887C487.467+407.887+487.372+407.935+487.32+408.03C487.268+408.126+487.233+408.251+487.216+408.407L486.904+408.407L486.904+404.767L487.216+404.767C487.25+405.079+487.38+405.235+487.606+405.235L495.276+405.235L495.276+405.547C494.998+405.565+494.86+405.712+494.86+405.989L494.86+410.305C494.86+410.427+494.877+410.531+494.912+410.617C494.946+410.704+495.033+410.747+495.172+410.747L495.302+410.747L495.302+411.059C492.944+412.307+490.154+412.931+486.93+412.931C485.838+412.931+484.785+412.797+483.771+412.528C482.757+412.26+481.86+411.839+481.08+411.267C480.3+410.695+479.671+409.972+479.195+409.096C478.718+408.221+478.48+407.194+478.48+406.015C478.48+404.837+478.718+403.81+479.195+402.934C479.671+402.059+480.3+401.331+481.08+400.75C481.86+400.17+482.757+399.736+483.771+399.45C484.785+399.164+485.838+399.021+486.93+399.021C487.363+399.021+487.744+399.03+488.074+399.047C488.403+399.065+488.724+399.099+489.036+399.151C489.348+399.203+489.668+399.268+489.998+399.346C490.327+399.424+490.717+399.524+491.168+399.645C491.601+399.767+492+399.91+492.364+400.074C492.728+400.239+492.962+400.321+493.066+400.321C493.204+400.321+493.326+400.252+493.43+400.113L493.742+400.217L492.052+403.649L491.74+403.467C491.774+403.363+491.792+403.268+491.792+403.181C491.792+403.06+491.644+402.926+491.35+402.778C491.055+402.631+490.682+402.497+490.232+402.375C489.781+402.254+489.274+402.15+488.711+402.063C488.147+401.977+487.597+401.933+487.06+401.933C486.436+401.933+485.842+402.016+485.279+402.18C484.715+402.345+484.213+402.601+483.771+402.947C483.329+403.294+482.978+403.723+482.718+404.234C482.458+404.746+482.328+405.357+482.328+406.067C482.328+406.761+482.484+407.363+482.796+407.874C483.108+408.386+483.502+408.806+483.979+409.135C484.455+409.465+484.988+409.707+485.578+409.863C486.167+410.019+486.748+410.097+487.32+410.097C488.048+410.097+488.702+410.054+489.283+409.967C489.863+409.881+490.422+409.759+490.96+409.603L490.96+407.887L487.606+407.887Z" opacity="1" fill="#000000"/>
<path d="M508.51+407.861C508.475+407.688+508.401+407.545+508.289+407.432C508.176+407.32+507.99+407.263+507.73+407.263L502.894+407.263L502.894+409.681L511.24+409.681C511.378+409.681+511.482+409.634+511.552+409.538C511.621+409.443+511.673+409.231+511.708+408.901L512.02+408.901L512.02+413.347L511.708+413.347C511.673+413.122+511.621+412.983+511.552+412.931C511.482+412.879+511.378+412.853+511.24+412.853L498.266+412.853L498.266+412.541C498.595+412.507+498.799+412.45+498.877+412.372C498.955+412.294+498.994+412.195+498.994+412.073L498.994+399.957C498.994+399.836+498.955+399.736+498.877+399.658C498.799+399.58+498.595+399.524+498.266+399.489L498.266+399.177L511.24+399.177C511.378+399.177+511.482+399.13+511.552+399.034C511.621+398.939+511.673+398.744+511.708+398.449L512.02+398.449L512.02+402.973L511.708+402.973C511.673+402.679+511.621+402.484+511.552+402.388C511.482+402.293+511.378+402.245+511.24+402.245L502.894+402.245L502.894+404.403L507.73+404.403C507.99+404.403+508.176+404.347+508.289+404.234C508.401+404.122+508.475+403.979+508.51+403.805L508.822+403.805L508.822+407.861L508.51+407.861Z" opacity="1" fill="#000000"/>
</g>
<g opacity="1">
<path d="M734.77+411.429C735.706+411.429+736.365+411.312+736.746+411.078C737.128+410.844+737.318+410.441+737.318+409.869C737.318+409.297+737.128+408.894+736.746+408.66C736.365+408.426+735.706+408.309+734.77+408.309L730.35+408.309L730.35+411.429L734.77+411.429ZM733.886+405.657C734.441+405.657+734.9+405.644+735.264+405.618C735.628+405.592+735.914+405.536+736.122+405.449C736.33+405.363+736.478+405.241+736.564+405.085C736.651+404.929+736.694+404.721+736.694+404.461C736.694+404.201+736.651+403.993+736.564+403.837C736.478+403.681+736.33+403.56+736.122+403.473C735.914+403.387+735.628+403.33+735.264+403.304C734.9+403.278+734.441+403.265+733.886+403.265L730.35+403.265L730.35+405.657L733.886+405.657ZM726.45+401.289C726.45+401.168+726.411+401.068+726.333+400.99C726.255+400.912+726.052+400.856+725.722+400.821L725.722+400.509L735.628+400.509C736.339+400.509+736.989+400.579+737.578+400.717C738.168+400.856+738.679+401.068+739.112+401.354C739.546+401.64+739.884+402.013+740.126+402.472C740.369+402.932+740.49+403.482+740.49+404.123C740.49+404.903+740.256+405.532+739.788+406.008C739.32+406.485+738.722+406.801+737.994+406.957L737.994+407.009C738.878+407.252+739.602+407.625+740.165+408.127C740.729+408.63+741.01+409.367+741.01+410.337C741.01+410.857+740.911+411.351+740.711+411.819C740.512+412.287+740.2+412.695+739.775+413.041C739.351+413.388+738.805+413.665+738.137+413.873C737.47+414.081+736.677+414.185+735.758+414.185L725.722+414.185L725.722+413.873C726.052+413.839+726.255+413.782+726.333+413.704C726.411+413.626+726.45+413.527+726.45+413.405L726.45+401.289Z" opacity="1" fill="#000000"/>
<path d="M744.91+409.323C744.893+409.41+744.88+409.488+744.871+409.557C744.863+409.627+744.858+409.679+744.858+409.713C744.858+410.025+745.01+410.281+745.313+410.48C745.617+410.68+745.968+410.84+746.366+410.961C746.765+411.083+747.164+411.165+747.562+411.208C747.961+411.252+748.256+411.273+748.446+411.273C749.192+411.273+749.681+411.109+749.915+410.779C750.149+410.45+750.266+409.956+750.266+409.297L750.266+401.289C750.266+401.168+750.227+401.068+750.149+400.99C750.071+400.912+749.868+400.856+749.538+400.821L749.538+400.509L754.894+400.509L754.894+400.821C754.565+400.856+754.361+400.912+754.283+400.99C754.205+401.068+754.166+401.168+754.166+401.289L754.166+409.947C754.166+410.866+754.015+411.611+753.711+412.183C753.408+412.755+752.992+413.197+752.463+413.509C751.935+413.821+751.315+414.025+750.604+414.12C749.894+414.216+749.131+414.263+748.316+414.263C747.692+414.263+747.12+414.229+746.6+414.159C746.08+414.09+745.625+414.003+745.235+413.899C744.845+413.795+744.529+413.7+744.286+413.613C744.044+413.527+743.888+413.483+743.818+413.483C743.68+413.483+743.58+413.509+743.519+413.561C743.459+413.613+743.359+413.7+743.22+413.821L742.83+413.587L744.598+409.219L744.91+409.323Z" opacity="1" fill="#000000"/>
<path d="M759.366+409.323C759.349+409.41+759.336+409.488+759.327+409.557C759.319+409.627+759.314+409.679+759.314+409.713C759.314+410.025+759.466+410.281+759.769+410.48C760.073+410.68+760.424+410.84+760.822+410.961C761.221+411.083+761.62+411.165+762.018+411.208C762.417+411.252+762.712+411.273+762.902+411.273C763.648+411.273+764.137+411.109+764.371+410.779C764.605+410.45+764.722+409.956+764.722+409.297L764.722+401.289C764.722+401.168+764.683+401.068+764.605+400.99C764.527+400.912+764.324+400.856+763.994+400.821L763.994+400.509L769.35+400.509L769.35+400.821C769.021+400.856+768.817+400.912+768.739+400.99C768.661+401.068+768.622+401.168+768.622+401.289L768.622+409.947C768.622+410.866+768.471+411.611+768.167+412.183C767.864+412.755+767.448+413.197+766.919+413.509C766.391+413.821+765.771+414.025+765.06+414.12C764.35+414.216+763.587+414.263+762.772+414.263C762.148+414.263+761.576+414.229+761.056+414.159C760.536+414.09+760.081+414.003+759.691+413.899C759.301+413.795+758.985+413.7+758.742+413.613C758.5+413.527+758.344+413.483+758.274+413.483C758.136+413.483+758.036+413.509+757.975+413.561C757.915+413.613+757.815+413.7+757.676+413.821L757.286+413.587L759.054+409.219L759.366+409.323Z" opacity="1" fill="#000000"/>
</g>
</g>
<g id="Layer 5" vectornator:layerName="Layer 5" visibility="hidden">
<g opacity="1">
<path d="M684.424+409.666C684.393+409.758+684.378+409.919+684.378+410.149C684.378+410.302+684.52+410.474+684.804+410.666C685.087+410.858+685.455+411.038+685.908+411.207C686.36+411.375+686.877+411.517+687.46+411.632C688.043+411.747+688.633+411.805+689.231+411.805C690.381+411.805+691.224+411.67+691.761+411.402C692.298+411.134+692.566+410.747+692.566+410.241C692.566+409.965+692.332+409.769+691.865+409.654C691.397+409.539+690.81+409.447+690.105+409.378C689.4+409.309+688.641+409.232+687.828+409.148C687.015+409.064+686.256+408.91+685.551+408.688C684.846+408.466+684.259+408.144+683.792+407.722C683.324+407.3+683.09+406.722+683.09+405.986C683.09+405.403+683.224+404.874+683.493+404.399C683.761+403.923+684.137+403.517+684.62+403.18C685.103+402.842+685.689+402.578+686.379+402.386C687.069+402.194+687.836+402.099+688.679+402.099C689.461+402.099+690.189+402.148+690.864+402.248C691.539+402.348+692.137+402.459+692.658+402.582C693.179+402.704+693.616+402.815+693.969+402.915C694.322+403.015+694.575+403.065+694.728+403.065C694.881+403.065+695.004+403.03+695.096+402.961C695.188+402.892+695.272+402.812+695.349+402.72L695.602+402.812L694.015+406.009L693.739+405.871L693.739+405.618C693.739+405.48+693.59+405.338+693.291+405.192C692.992+405.046+692.612+404.916+692.152+404.801C691.692+404.686+691.178+404.59+690.611+404.514C690.044+404.437+689.492+404.399+688.955+404.399C687.958+404.399+687.261+404.514+686.862+404.744C686.463+404.974+686.264+405.219+686.264+405.48C686.264+405.74+686.402+405.936+686.678+406.066C686.954+406.196+687.314+406.292+687.759+406.354C688.204+406.415+688.71+406.465+689.277+406.503C689.844+406.541+690.427+406.599+691.025+406.676C691.623+406.752+692.206+406.86+692.773+406.998C693.34+407.136+693.846+407.339+694.291+407.607C694.736+407.875+695.096+408.228+695.372+408.665C695.648+409.102+695.786+409.65+695.786+410.31C695.786+410.816+695.683+411.314+695.476+411.805C695.269+412.295+694.916+412.736+694.418+413.127C693.919+413.518+693.252+413.829+692.417+414.059C691.581+414.289+690.542+414.404+689.3+414.404C688.334+414.404+687.502+414.358+686.805+414.266C686.107+414.174+685.513+414.062+685.022+413.932C684.531+413.802+684.144+413.683+683.861+413.576C683.577+413.468+683.366+413.415+683.228+413.415C683.136+413.415+683.056+413.445+682.987+413.507C682.918+413.568+682.845+413.637+682.768+413.714L682.492+413.645L684.194+409.551L684.424+409.666Z" opacity="1" fill="#000000"/>
<path d="M712.277+413.645C712.277+413.752+712.312+413.84+712.381+413.909C712.45+413.978+712.63+414.028+712.921+414.059L712.921+414.335L708.183+414.335L708.183+414.059C708.474+414.028+708.655+413.978+708.724+413.909C708.793+413.84+708.827+413.752+708.827+413.645L708.827+409.39L702.847+409.39L702.847+413.645C702.847+413.752+702.882+413.84+702.951+413.909C703.02+413.978+703.2+414.028+703.491+414.059L703.491+414.335L698.753+414.335L698.753+414.059C699.044+414.028+699.225+413.978+699.294+413.909C699.363+413.84+699.397+413.752+699.397+413.645L699.397+402.927C699.397+402.819+699.363+402.731+699.294+402.662C699.225+402.593+699.044+402.543+698.753+402.513L698.753+402.237L703.491+402.237L703.491+402.513C703.2+402.543+703.02+402.593+702.951+402.662C702.882+402.731+702.847+402.819+702.847+402.927L702.847+406.584L708.827+406.584L708.827+402.927C708.827+402.819+708.793+402.731+708.724+402.662C708.655+402.593+708.474+402.543+708.183+402.513L708.183+402.237L712.921+402.237L712.921+402.513C712.63+402.543+712.45+402.593+712.381+402.662C712.312+402.731+712.277+402.819+712.277+402.927L712.277+413.645Z" opacity="1" fill="#000000"/>
<path d="M724.605+407.343C725.28+407.343+725.744+407.216+725.997+406.963C726.25+406.71+726.376+406.415+726.376+406.078C726.376+405.74+726.25+405.445+725.997+405.192C725.744+404.939+725.28+404.813+724.605+404.813L720.741+404.813L720.741+407.343L724.605+407.343ZM720.741+413.645C720.741+413.752+720.776+413.84+720.845+413.909C720.914+413.978+721.094+414.028+721.385+414.059L721.385+414.335L716.647+414.335L716.647+414.059C716.938+414.028+717.119+413.978+717.188+413.909C717.257+413.84+717.291+413.752+717.291+413.645L717.291+402.927C717.291+402.819+717.257+402.731+717.188+402.662C717.119+402.593+716.938+402.543+716.647+402.513L716.647+402.237L725.065+402.237C726.767+402.237+728.001+402.547+728.768+403.168C729.535+403.789+729.918+404.751+729.918+406.055C729.918+407.113+729.608+407.941+728.987+408.539C728.366+409.137+727.58+409.566+726.629+409.827L729.343+413.645C729.527+413.921+729.749+414.059+730.01+414.059L730.01+414.335L725.226+414.335L725.226+414.059C725.563+414.043+725.732+413.905+725.732+413.645C725.732+413.614+725.671+413.507+725.548+413.323C725.425+413.139+725.272+412.916+725.088+412.656C724.904+412.395+724.701+412.115+724.479+411.816C724.256+411.517+724.042+411.23+723.835+410.954C723.628+410.678+723.447+410.432+723.294+410.218C723.141+410.003+723.041+409.857+722.995+409.781L720.741+409.781L720.741+413.645Z" opacity="1" fill="#000000"/>
<path d="M733.506+414.059C733.797+414.028+733.978+413.978+734.047+413.909C734.116+413.84+734.15+413.752+734.15+413.645L734.15+402.927C734.15+402.819+734.116+402.731+734.047+402.662C733.978+402.593+733.797+402.543+733.506+402.513L733.506+402.237L738.244+402.237L738.244+402.513C737.953+402.543+737.773+402.593+737.704+402.662C737.635+402.731+737.6+402.819+737.6+402.927L737.6+413.645C737.6+413.752+737.635+413.84+737.704+413.909C737.773+413.978+737.953+414.028+738.244+414.059L738.244+414.335L733.506+414.335L733.506+414.059Z" opacity="1" fill="#000000"/>
<path d="M753.102+414.059C753.393+414.028+753.574+413.978+753.643+413.909C753.712+413.84+753.746+413.752+753.746+413.645L753.746+405.181L753.7+405.135L749.606+414.059L745.558+405.043L745.512+405.043L745.512+413.645C745.512+413.752+745.547+413.84+745.616+413.909C745.685+413.978+745.865+414.028+746.156+414.059L746.156+414.335L742.108+414.335L742.108+414.059C742.399+414.028+742.58+413.978+742.649+413.909C742.718+413.84+742.752+413.752+742.752+413.645L742.752+402.927C742.752+402.819+742.718+402.731+742.649+402.662C742.58+402.593+742.399+402.543+742.108+402.513L742.108+402.237L748.111+402.237L748.111+402.513C747.743+402.528+747.559+402.666+747.559+402.927C747.559+402.942+747.605+403.065+747.697+403.295C747.789+403.525+747.908+403.808+748.054+404.146C748.199+404.483+748.36+404.847+748.537+405.238C748.713+405.629+748.882+406.005+749.043+406.365C749.204+406.725+749.345+407.044+749.468+407.32C749.591+407.596+749.675+407.78+749.721+407.872C749.982+407.289+750.25+406.722+750.526+406.17C750.802+405.618+751.051+405.112+751.274+404.652C751.496+404.192+751.676+403.808+751.814+403.502C751.952+403.195+752.021+403.003+752.021+402.927C752.021+402.666+751.837+402.528+751.469+402.513L751.469+402.237L757.702+402.237L757.702+402.513C757.411+402.543+757.231+402.593+757.162+402.662C757.093+402.731+757.058+402.819+757.058+402.927L757.058+413.645C757.058+413.752+757.093+413.84+757.162+413.909C757.231+413.978+757.411+414.028+757.702+414.059L757.702+414.335L753.102+414.335L753.102+414.059Z" opacity="1" fill="#000000"/>
<path d="M768.949+407.458C769.593+407.458+770.065+407.35+770.364+407.136C770.663+406.921+770.812+406.568+770.812+406.078C770.812+405.633+770.663+405.311+770.364+405.112C770.065+404.912+769.593+404.813+768.949+404.813L765.453+404.813L765.453+407.458L768.949+407.458ZM765.453+413.645C765.453+413.752+765.488+413.84+765.557+413.909C765.626+413.978+765.806+414.028+766.097+414.059L766.097+414.335L761.359+414.335L761.359+414.059C761.65+414.028+761.831+413.978+761.9+413.909C761.969+413.84+762.003+413.752+762.003+413.645L762.003+402.927C762.003+402.819+761.969+402.731+761.9+402.662C761.831+402.593+761.65+402.543+761.359+402.513L761.359+402.237L769.593+402.237C770.314+402.237+770.95+402.34+771.502+402.547C772.054+402.754+772.514+403.034+772.882+403.387C773.25+403.739+773.526+404.149+773.71+404.617C773.894+405.085+773.986+405.572+773.986+406.078C773.986+406.584+773.894+407.07+773.71+407.538C773.526+408.006+773.25+408.412+772.882+408.757C772.514+409.102+772.054+409.378+771.502+409.585C770.95+409.792+770.314+409.896+769.593+409.896L765.453+409.896L765.453+413.645Z" opacity="1" fill="#000000"/>
<path d="M791.627+411.897C792.455+411.897+793.038+411.793+793.375+411.586C793.712+411.379+793.881+411.023+793.881+410.517C793.881+410.011+793.712+409.654+793.375+409.447C793.038+409.24+792.455+409.137+791.627+409.137L787.717+409.137L787.717+411.897L791.627+411.897ZM790.845+406.791C791.336+406.791+791.742+406.779+792.064+406.756C792.386+406.733+792.639+406.683+792.823+406.607C793.007+406.53+793.137+406.423+793.214+406.285C793.291+406.147+793.329+405.963+793.329+405.733C793.329+405.503+793.291+405.319+793.214+405.181C793.137+405.043+793.007+404.935+792.823+404.859C792.639+404.782+792.386+404.732+792.064+404.709C791.742+404.686+791.336+404.675+790.845+404.675L787.717+404.675L787.717+406.791L790.845+406.791ZM784.267+402.927C784.267+402.819+784.233+402.731+784.164+402.662C784.095+402.593+783.914+402.543+783.623+402.513L783.623+402.237L792.386+402.237C793.015+402.237+793.59+402.298+794.111+402.421C794.632+402.543+795.085+402.731+795.468+402.984C795.851+403.237+796.15+403.567+796.365+403.973C796.58+404.379+796.687+404.866+796.687+405.434C796.687+406.124+796.48+406.679+796.066+407.101C795.652+407.523+795.123+407.803+794.479+407.941L794.479+407.987C795.261+408.201+795.901+408.531+796.4+408.976C796.898+409.42+797.147+410.072+797.147+410.931C797.147+411.391+797.059+411.828+796.883+412.242C796.706+412.656+796.43+413.016+796.055+413.323C795.679+413.629+795.196+413.875+794.606+414.059C794.015+414.243+793.314+414.335+792.501+414.335L783.623+414.335L783.623+414.059C783.914+414.028+784.095+413.978+784.164+413.909C784.233+413.84+784.267+413.752+784.267+413.645L784.267+402.927Z" opacity="1" fill="#000000"/>
<path d="M808.279+407.343C808.954+407.343+809.418+407.216+809.671+406.963C809.924+406.71+810.05+406.415+810.05+406.078C810.05+405.74+809.924+405.445+809.671+405.192C809.418+404.939+808.954+404.813+808.279+404.813L804.415+404.813L804.415+407.343L808.279+407.343ZM804.415+413.645C804.415+413.752+804.45+413.84+804.519+413.909C804.588+413.978+804.768+414.028+805.059+414.059L805.059+414.335L800.321+414.335L800.321+414.059C800.612+414.028+800.793+413.978+800.862+413.909C800.931+413.84+800.965+413.752+800.965+413.645L800.965+402.927C800.965+402.819+800.931+402.731+800.862+402.662C800.793+402.593+800.612+402.543+800.321+402.513L800.321+402.237L808.739+402.237C810.441+402.237+811.675+402.547+812.442+403.168C813.209+403.789+813.592+404.751+813.592+406.055C813.592+407.113+813.282+407.941+812.661+408.539C812.04+409.137+811.254+409.566+810.303+409.827L813.017+413.645C813.201+413.921+813.423+414.059+813.684+414.059L813.684+414.335L808.9+414.335L808.9+414.059C809.237+414.043+809.406+413.905+809.406+413.645C809.406+413.614+809.345+413.507+809.222+413.323C809.099+413.139+808.946+412.916+808.762+412.656C808.578+412.395+808.375+412.115+808.153+411.816C807.93+411.517+807.716+411.23+807.509+410.954C807.302+410.678+807.121+410.432+806.968+410.218C806.815+410.003+806.715+409.857+806.669+409.781L804.415+409.781L804.415+413.645Z" opacity="1" fill="#000000"/>
<path d="M817.18+414.059C817.471+414.028+817.652+413.978+817.721+413.909C817.79+413.84+817.824+413.752+817.824+413.645L817.824+402.927C817.824+402.819+817.79+402.731+817.721+402.662C817.652+402.593+817.471+402.543+817.18+402.513L817.18+402.237L821.918+402.237L821.918+402.513C821.627+402.543+821.447+402.593+821.378+402.662C821.309+402.731+821.274+402.819+821.274+402.927L821.274+413.645C821.274+413.752+821.309+413.84+821.378+413.909C821.447+413.978+821.627+414.028+821.918+414.059L821.918+414.335L817.18+414.335L817.18+414.059Z" opacity="1" fill="#000000"/>
<path d="M832.889+411.621C834.1+411.621+834.974+411.31+835.511+410.689C836.048+410.068+836.316+409.267+836.316+408.286C836.316+407.304+836.048+406.503+835.511+405.882C834.974+405.261+834.1+404.951+832.889+404.951L829.968+404.951L829.968+411.621L832.889+411.621ZM826.518+402.927C826.518+402.819+826.484+402.731+826.415+402.662C826.346+402.593+826.165+402.543+825.874+402.513L825.874+402.237L833.51+402.237C834.568+402.237+835.488+402.39+836.27+402.697C837.052+403.003+837.696+403.429+838.202+403.973C838.708+404.517+839.088+405.158+839.341+405.894C839.594+406.63+839.72+407.427+839.72+408.286C839.72+409.068+839.586+409.823+839.318+410.551C839.049+411.279+838.643+411.923+838.099+412.483C837.554+413.043+836.88+413.491+836.075+413.829C835.27+414.166+834.33+414.335+833.257+414.335L825.874+414.335L825.874+414.059C826.165+414.028+826.346+413.978+826.415+413.909C826.484+413.84+826.518+413.752+826.518+413.645L826.518+402.927Z" opacity="1" fill="#000000"/>
<path d="M849.656+409.942C849.533+409.942+849.449+409.984+849.403+410.068C849.357+410.152+849.326+410.264+849.311+410.402L849.035+410.402L849.035+407.182L849.311+407.182C849.342+407.458+849.457+407.596+849.656+407.596L856.441+407.596L856.441+407.872C856.196+407.887+856.073+408.017+856.073+408.263L856.073+412.081C856.073+412.188+856.088+412.28+856.119+412.357C856.15+412.433+856.226+412.472+856.349+412.472L856.464+412.472L856.464+412.748C854.379+413.852+851.91+414.404+849.058+414.404C848.092+414.404+847.161+414.285+846.264+414.047C845.367+413.809+844.573+413.438+843.883+412.932C843.193+412.426+842.637+411.785+842.216+411.011C841.794+410.237+841.583+409.328+841.583+408.286C841.583+407.243+841.794+406.334+842.216+405.56C842.637+404.786+843.193+404.142+843.883+403.628C844.573+403.114+845.367+402.731+846.264+402.478C847.161+402.225+848.092+402.099+849.058+402.099C849.441+402.099+849.779+402.106+850.07+402.122C850.361+402.137+850.645+402.168+850.921+402.214C851.197+402.26+851.481+402.317+851.772+402.386C852.063+402.455+852.408+402.543+852.807+402.651C853.19+402.758+853.543+402.884+853.865+403.03C854.187+403.176+854.394+403.249+854.486+403.249C854.609+403.249+854.716+403.187+854.808+403.065L855.084+403.157L853.589+406.193L853.313+406.032C853.344+405.94+853.359+405.855+853.359+405.779C853.359+405.671+853.229+405.552+852.968+405.422C852.707+405.292+852.378+405.173+851.979+405.066C851.58+404.958+851.132+404.866+850.634+404.79C850.135+404.713+849.648+404.675+849.173+404.675C848.621+404.675+848.096+404.747+847.598+404.893C847.099+405.039+846.655+405.265+846.264+405.572C845.873+405.878+845.562+406.258+845.332+406.71C845.102+407.162+844.987+407.703+844.987+408.332C844.987+408.945+845.125+409.478+845.401+409.93C845.677+410.382+846.026+410.754+846.448+411.046C846.869+411.337+847.341+411.552+847.862+411.69C848.383+411.828+848.897+411.897+849.403+411.897C850.047+411.897+850.626+411.858+851.14+411.782C851.653+411.705+852.148+411.598+852.623+411.46L852.623+409.942L849.656+409.942Z" opacity="1" fill="#000000"/>
<path d="M868.148+409.919C868.117+409.765+868.052+409.639+867.953+409.539C867.853+409.439+867.688+409.39+867.458+409.39L863.18+409.39L863.18+411.529L870.563+411.529C870.686+411.529+870.778+411.486+870.839+411.402C870.9+411.318+870.946+411.13+870.977+410.839L871.253+410.839L871.253+414.772L870.977+414.772C870.946+414.572+870.9+414.45+870.839+414.404C870.778+414.358+870.686+414.335+870.563+414.335L859.086+414.335L859.086+414.059C859.377+414.028+859.558+413.978+859.627+413.909C859.696+413.84+859.73+413.752+859.73+413.645L859.73+402.927C859.73+402.819+859.696+402.731+859.627+402.662C859.558+402.593+859.377+402.543+859.086+402.513L859.086+402.237L870.563+402.237C870.686+402.237+870.778+402.194+870.839+402.11C870.9+402.026+870.946+401.853+870.977+401.593L871.253+401.593L871.253+405.595L870.977+405.595C870.946+405.334+870.9+405.161+870.839+405.077C870.778+404.993+870.686+404.951+870.563+404.951L863.18+404.951L863.18+406.86L867.458+406.86C867.688+406.86+867.853+406.81+867.953+406.71C868.052+406.61+868.117+406.484+868.148+406.331L868.424+406.331L868.424+409.919L868.148+409.919Z" opacity="1" fill="#000000"/>
<path d="M889.354+411.897C890.182+411.897+890.765+411.793+891.102+411.586C891.439+411.379+891.608+411.023+891.608+410.517C891.608+410.011+891.439+409.654+891.102+409.447C890.765+409.24+890.182+409.137+889.354+409.137L885.444+409.137L885.444+411.897L889.354+411.897ZM888.572+406.791C889.063+406.791+889.469+406.779+889.791+406.756C890.113+406.733+890.366+406.683+890.55+406.607C890.734+406.53+890.864+406.423+890.941+406.285C891.018+406.147+891.056+405.963+891.056+405.733C891.056+405.503+891.018+405.319+890.941+405.181C890.864+405.043+890.734+404.935+890.55+404.859C890.366+404.782+890.113+404.732+889.791+404.709C889.469+404.686+889.063+404.675+888.572+404.675L885.444+404.675L885.444+406.791L888.572+406.791ZM881.994+402.927C881.994+402.819+881.96+402.731+881.891+402.662C881.822+402.593+881.641+402.543+881.35+402.513L881.35+402.237L890.113+402.237C890.742+402.237+891.317+402.298+891.838+402.421C892.359+402.543+892.812+402.731+893.195+402.984C893.578+403.237+893.877+403.567+894.092+403.973C894.307+404.379+894.414+404.866+894.414+405.434C894.414+406.124+894.207+406.679+893.793+407.101C893.379+407.523+892.85+407.803+892.206+407.941L892.206+407.987C892.988+408.201+893.628+408.531+894.127+408.976C894.625+409.42+894.874+410.072+894.874+410.931C894.874+411.391+894.786+411.828+894.61+412.242C894.433+412.656+894.157+413.016+893.782+413.323C893.406+413.629+892.923+413.875+892.333+414.059C891.742+414.243+891.041+414.335+890.228+414.335L881.35+414.335L881.35+414.059C881.641+414.028+881.822+413.978+881.891+413.909C881.96+413.84+881.994+413.752+881.994+413.645L881.994+402.927Z" opacity="1" fill="#000000"/>
<path d="M898.324+410.034C898.309+410.11+898.297+410.179+898.29+410.241C898.282+410.302+898.278+410.348+898.278+410.379C898.278+410.655+898.412+410.881+898.681+411.057C898.949+411.233+899.259+411.375+899.612+411.483C899.965+411.59+900.317+411.663+900.67+411.701C901.023+411.739+901.283+411.759+901.452+411.759C902.111+411.759+902.545+411.613+902.752+411.322C902.959+411.03+903.062+410.593+903.062+410.011L903.062+402.927C903.062+402.819+903.028+402.731+902.959+402.662C902.89+402.593+902.709+402.543+902.418+402.513L902.418+402.237L907.156+402.237L907.156+402.513C906.865+402.543+906.685+402.593+906.616+402.662C906.547+402.731+906.512+402.819+906.512+402.927L906.512+410.586C906.512+411.398+906.378+412.058+906.11+412.564C905.841+413.07+905.473+413.461+905.006+413.737C904.538+414.013+903.99+414.193+903.361+414.277C902.732+414.361+902.058+414.404+901.337+414.404C900.785+414.404+900.279+414.373+899.819+414.312C899.359+414.25+898.957+414.174+898.612+414.082C898.267+413.99+897.987+413.905+897.772+413.829C897.557+413.752+897.419+413.714+897.358+413.714C897.235+413.714+897.147+413.737+897.094+413.783C897.04+413.829+896.952+413.905+896.829+414.013L896.484+413.806L898.048+409.942L898.324+410.034Z" opacity="1" fill="#000000"/>
<path d="M911.112+410.034C911.097+410.11+911.085+410.179+911.078+410.241C911.07+410.302+911.066+410.348+911.066+410.379C911.066+410.655+911.2+410.881+911.469+411.057C911.737+411.233+912.047+411.375+912.4+411.483C912.753+411.59+913.105+411.663+913.458+411.701C913.811+411.739+914.071+411.759+914.24+411.759C914.899+411.759+915.333+411.613+915.54+411.322C915.747+411.03+915.85+410.593+915.85+410.011L915.85+402.927C915.85+402.819+915.816+402.731+915.747+402.662C915.678+402.593+915.497+402.543+915.206+402.513L915.206+402.237L919.944+402.237L919.944+402.513C919.653+402.543+919.473+402.593+919.404+402.662C919.335+402.731+919.3+402.819+919.3+402.927L919.3+410.586C919.3+411.398+919.166+412.058+918.898+412.564C918.629+413.07+918.261+413.461+917.794+413.737C917.326+414.013+916.778+414.193+916.149+414.277C915.52+414.361+914.846+414.404+914.125+414.404C913.573+414.404+913.067+414.373+912.607+414.312C912.147+414.25+911.745+414.174+911.4+414.082C911.055+413.99+910.775+413.905+910.56+413.829C910.345+413.752+910.207+413.714+910.146+413.714C910.023+413.714+909.935+413.737+909.882+413.783C909.828+413.829+909.74+413.905+909.617+414.013L909.272+413.806L910.836+409.942L911.112+410.034Z" opacity="1" fill="#000000"/>
</g>
</g>
<g id="Layer 6" vectornator:layerName="Layer 6" visibility="hidden">
<g opacity="1">
<path d="M169.723+206.875C171.37+206.702+172.388+206.42+172.778+206.03C173.168+205.64+173.363+205.142+173.363+204.535L173.363+155.915L151.003+155.915C150.31+155.915+149.79+156.154+149.443+156.63C149.097+157.107+148.837+158.082+148.663+159.555L147.103+159.555L147.103+136.415L148.663+136.415C148.837+137.889+149.097+138.864+149.443+139.34C149.79+139.817+150.31+140.055+151.003+140.055L215.223+140.055C215.917+140.055+216.437+139.817+216.783+139.34C217.13+138.864+217.39+137.889+217.563+136.415L219.123+136.415L219.123+159.555L217.563+159.555C217.39+158.082+217.13+157.107+216.783+156.63C216.437+156.154+215.917+155.915+215.223+155.915L192.863+155.915L192.863+204.535C192.863+205.142+193.058+205.64+193.448+206.03C193.838+206.42+194.857+206.702+196.503+206.875L196.503+208.435L169.723+208.435L169.723+206.875Z" opacity="1" fill="#ffffff"/>
<path d="M278.403+168.915C282.217+168.915+284.838+168.2+286.268+166.77C287.698+165.34+288.413+163.672+288.413+161.765C288.413+159.859+287.698+158.19+286.268+156.76C284.838+155.33+282.217+154.615+278.403+154.615L256.563+154.615L256.563+168.915L278.403+168.915ZM256.563+204.535C256.563+205.142+256.758+205.64+257.148+206.03C257.538+206.42+258.557+206.702+260.203+206.875L260.203+208.435L233.423+208.435L233.423+206.875C235.07+206.702+236.088+206.42+236.478+206.03C236.868+205.64+237.063+205.142+237.063+204.535L237.063+143.955C237.063+143.349+236.868+142.85+236.478+142.46C236.088+142.07+235.07+141.789+233.423+141.615L233.423+140.055L281.003+140.055C290.623+140.055+297.6+141.81+301.933+145.32C306.267+148.83+308.433+154.269+308.433+161.635C308.433+167.615+306.678+172.295+303.168+175.675C299.658+179.055+295.217+181.482+289.843+182.955L305.183+204.535C306.223+206.095+307.48+206.875+308.953+206.875L308.953+208.435L281.913+208.435L281.913+206.875C283.82+206.789+284.773+206.009+284.773+204.535C284.773+204.362+284.427+203.755+283.733+202.715C283.04+201.675+282.173+200.419+281.133+198.945C280.093+197.472+278.945+195.89+277.688+194.2C276.432+192.51+275.218+190.885+274.048+189.325C272.878+187.765+271.86+186.379+270.993+185.165C270.127+183.952+269.563+183.129+269.303+182.695L256.563+182.695L256.563+204.535Z" opacity="1" fill="#ffffff"/>
<path d="M342.753+205.575C342.753+206.009+342.905+206.334+343.208+206.55C343.512+206.767+344.14+206.875+345.093+206.875L345.093+208.435L322.083+208.435L322.083+206.875C323.037+206.702+323.73+206.42+324.163+206.03C324.597+205.64+325.03+204.925+325.463+203.885C325.637+203.452+326.07+202.282+326.763+200.375C327.457+198.469+328.367+196.064+329.493+193.16C330.62+190.257+331.877+187.029+333.263+183.475C334.65+179.922+336.037+176.304+337.423+172.62C338.81+168.937+340.175+165.34+341.518+161.83C342.862+158.32+344.053+155.179+345.093+152.405C346.133+149.632+346.978+147.379+347.628+145.645C348.278+143.912+348.603+143.002+348.603+142.915C348.603+142.482+348.322+142.179+347.758+142.005C347.195+141.832+346.61+141.702+346.003+141.615L346.003+140.055L379.933+140.055L379.933+141.615C379.24+141.702+378.677+141.832+378.243+142.005C377.81+142.179+377.593+142.612+377.593+143.305C377.593+143.479+378.005+144.605+378.828+146.685C379.652+148.765+380.713+151.474+382.013+154.81C383.313+158.147+384.808+161.917+386.498+166.12C388.188+170.324+389.943+174.614+391.763+178.99C393.583+183.367+395.338+187.635+397.028+191.795C398.718+195.955+400.257+199.682+401.643+202.975C402.337+204.535+402.922+205.575+403.398+206.095C403.875+206.615+404.503+206.875+405.283+206.875L405.283+208.435L379.673+208.435L379.673+206.875C381.32+206.789+382.143+206.269+382.143+205.315C382.143+205.229+381.927+204.644+381.493+203.56C381.06+202.477+380.583+201.264+380.063+199.92C379.543+198.577+379.045+197.299+378.568+196.085C378.092+194.872+377.81+194.049+377.723+193.615L346.913+193.615C346.047+195.955+345.353+197.862+344.833+199.335C344.313+200.809+343.902+201.979+343.598+202.845C343.295+203.712+343.078+204.34+342.948+204.73C342.818+205.12+342.753+205.402+342.753+205.575ZM374.343+183.215L361.733+152.275L350.163+183.215L374.343+183.215Z" opacity="1" fill="#ffffff"/>
<path d="M422.573+206.875C424.22+206.702+425.238+206.42+425.628+206.03C426.018+205.64+426.213+205.142+426.213+204.535L426.213+143.955C426.213+143.349+426.018+142.85+425.628+142.46C425.238+142.07+424.22+141.789+422.573+141.615L422.573+140.055L449.353+140.055L449.353+141.615C447.707+141.789+446.688+142.07+446.298+142.46C445.908+142.85+445.713+143.349+445.713+143.955L445.713+204.535C445.713+205.142+445.908+205.64+446.298+206.03C446.688+206.42+447.707+206.702+449.353+206.875L449.353+208.435L422.573+208.435L422.573+206.875Z" opacity="1" fill="#ffffff"/>
<path d="M475.353+143.955C475.353+143.349+475.158+142.85+474.768+142.46C474.378+142.07+473.36+141.789+471.713+141.615L471.713+140.055L503.043+140.055L503.043+141.615C501.57+141.702+500.595+141.897+500.118+142.2C499.642+142.504+499.403+142.872+499.403+143.305C499.403+143.479+499.967+144.259+501.093+145.645C502.22+147.032+503.693+148.765+505.513+150.845C507.333+152.925+509.392+155.244+511.688+157.8C513.985+160.357+516.303+162.914+518.643+165.47C520.983+168.027+523.237+170.454+525.403+172.75C527.57+175.047+529.433+177.019+530.993+178.665L530.993+143.955C530.993+142.482+530.083+141.702+528.263+141.615L528.263+140.055L552.053+140.055L552.053+141.615C550.407+141.789+549.388+142.07+548.998+142.46C548.608+142.85+548.413+143.349+548.413+143.955L548.413+204.535C548.413+205.142+548.608+205.64+548.998+206.03C549.388+206.42+550.407+206.702+552.053+206.875L552.053+208.435L527.353+208.435L527.353+206.875C528.567+206.875+529.368+206.745+529.758+206.485C530.148+206.225+530.343+205.879+530.343+205.445C530.343+205.185+530.213+204.86+529.953+204.47C529.693+204.08+529.13+203.409+528.263+202.455C527.397+201.502+526.118+200.137+524.428+198.36C522.738+196.584+520.507+194.2+517.733+191.21C514.96+188.22+511.537+184.494+507.463+180.03C503.39+175.567+498.493+170.129+492.773+163.715L492.773+204.535C492.773+205.142+492.968+205.64+493.358+206.03C493.748+206.42+494.767+206.702+496.413+206.875L496.413+208.435L471.713+208.435L471.713+206.875C473.36+206.702+474.378+206.42+474.768+206.03C475.158+205.64+475.353+205.142+475.353+204.535L475.353+143.955Z" opacity="1" fill="#ffffff"/>
</g>
<g opacity="1">
<path d="M42.6331+58.068C42.6331+57.4613+42.4381+56.963+42.0481+56.573C41.6581+56.183+40.6397+55.9013+38.9931+55.728L38.9931+54.168L70.3231+54.168L70.3231+55.728C68.8497+55.8147+67.8747+56.0097+67.3981+56.313C66.9214+56.6163+66.6831+56.9847+66.6831+57.418C66.6831+57.5913+67.2464+58.3713+68.3731+59.758C69.4997+61.1447+70.9731+62.878+72.7931+64.958C74.6131+67.038+76.6714+69.3563+78.9681+71.913C81.2647+74.4697+83.5831+77.0263+85.9231+79.583C88.2631+82.1397+90.5164+84.5663+92.6831+86.863C94.8497+89.1597+96.7131+91.1313+98.2731+92.778L98.2731+58.068C98.2731+56.5947+97.3631+55.8147+95.5431+55.728L95.5431+54.168L119.333+54.168L119.333+55.728C117.686+55.9013+116.668+56.183+116.278+56.573C115.888+56.963+115.693+57.4613+115.693+58.068L115.693+118.648C115.693+119.255+115.888+119.753+116.278+120.143C116.668+120.533+117.686+120.815+119.333+120.988L119.333+122.548L94.6331+122.548L94.6331+120.988C95.8464+120.988+96.6481+120.858+97.0381+120.598C97.4281+120.338+97.6231+119.991+97.6231+119.558C97.6231+119.298+97.4931+118.973+97.2331+118.583C96.9731+118.193+96.4097+117.521+95.5431+116.568C94.6764+115.615+93.3981+114.25+91.7081+112.473C90.0181+110.696+87.7864+108.313+85.0131+105.323C82.2397+102.333+78.8164+98.6063+74.7431+94.143C70.6697+89.6797+65.7731+84.2413+60.0531+77.828L60.0531+118.648C60.0531+119.255+60.2481+119.753+60.6381+120.143C61.0281+120.533+62.0464+120.815+63.6931+120.988L63.6931+122.548L38.9931+122.548L38.9931+120.988C40.6397+120.815+41.6581+120.533+42.0481+120.143C42.4381+119.753+42.6331+119.255+42.6331+118.648L42.6331+58.068Z" opacity="1" fill="#ffffff"/>
<path d="M141.563+120.988C143.21+120.815+144.228+120.533+144.618+120.143C145.008+119.753+145.203+119.255+145.203+118.648L145.203+58.068C145.203+57.4613+145.008+56.963+144.618+56.573C144.228+56.183+143.21+55.9013+141.563+55.728L141.563+54.168L168.343+54.168L168.343+55.728C166.696+55.9013+165.678+56.183+165.288+56.573C164.898+56.963+164.703+57.4613+164.703+58.068L164.703+118.648C164.703+119.255+164.898+119.753+165.288+120.143C165.678+120.533+166.696+120.815+168.343+120.988L168.343+122.548L141.563+122.548L141.563+120.988Z" opacity="1" fill="#ffffff"/>
<path d="M252.973+78.478C253.06+78.218+253.125+77.9363+253.168+77.633C253.211+77.3297+253.233+76.9613+253.233+76.528C253.233+75.8347+252.648+75.1413+251.478+74.448C250.308+73.7547+248.748+73.1263+246.798+72.563C244.848+71.9997+242.616+71.523+240.103+71.133C237.59+70.743+234.946+70.548+232.173+70.548C229.573+70.548+226.843+70.8513+223.983+71.458C221.123+72.0647+218.501+73.0613+216.118+74.448C213.735+75.8347+211.785+77.6763+210.268+79.973C208.751+82.2697+207.993+85.0647+207.993+88.358C207.993+91.6513+208.751+94.4463+210.268+96.743C211.785+99.0397+213.735+100.881+216.118+102.268C218.501+103.655+221.123+104.651+223.983+105.258C226.843+105.865+229.573+106.168+232.173+106.168C233.3+106.168+235.076+105.973+237.503+105.583C239.93+105.193+242.356+104.651+244.783+103.958C247.21+103.265+249.355+102.485+251.218+101.618C253.081+100.751+254.013+99.8413+254.013+98.888C254.013+98.4547+253.926+98.108+253.753+97.848C253.58+97.588+253.406+97.2847+253.233+96.938L254.663+96.028L268.053+116.438L266.493+117.348C266.32+116.915+266.081+116.633+265.778+116.503C265.475+116.373+265.106+116.308+264.673+116.308C264.066+116.308+262.853+116.676+261.033+117.413C259.213+118.15+256.851+118.93+253.948+119.753C251.045+120.576+247.643+121.313+243.743+121.963C239.843+122.613+235.466+122.938+230.613+122.938C225.413+122.938+220.256+122.266+215.143+120.923C210.03+119.58+205.436+117.456+201.363+114.553C197.29+111.65+193.996+108.01+191.483+103.633C188.97+99.2563+187.713+94.1647+187.713+88.358C187.713+82.5513+188.97+77.4597+191.483+73.083C193.996+68.7063+197.29+65.0663+201.363+62.163C205.436+59.2597+210.03+57.0713+215.143+55.598C220.256+54.1247+225.413+53.388+230.613+53.388C235.813+53.388+240.298+53.6697+244.068+54.233C247.838+54.7963+251.023+55.4247+253.623+56.118C256.136+56.8113+258.086+57.3963+259.473+57.873C260.86+58.3497+261.9+58.588+262.593+58.588C263.373+58.588+264.023+58.2413+264.543+57.548L265.973+57.938L254.273+79.388L252.973+78.478Z" opacity="1" fill="#ffffff"/>
<path d="M335.783+97.588C335.61+96.7213+335.241+96.0063+334.678+95.443C334.115+94.8797+333.183+94.598+331.883+94.598L307.703+94.598L307.703+106.688L349.433+106.688C350.126+106.688+350.646+106.45+350.993+105.973C351.34+105.496+351.6+104.435+351.773+102.788L353.333+102.788L353.333+125.018L351.773+125.018C351.6+123.891+351.34+123.198+350.993+122.938C350.646+122.678+350.126+122.548+349.433+122.548L284.563+122.548L284.563+120.988C286.21+120.815+287.228+120.533+287.618+120.143C288.008+119.753+288.203+119.255+288.203+118.648L288.203+58.068C288.203+57.4613+288.008+56.963+287.618+56.573C287.228+56.183+286.21+55.9013+284.563+55.728L284.563+54.168L349.433+54.168C350.126+54.168+350.646+53.9297+350.993+53.453C351.34+52.9763+351.6+52.0013+351.773+50.528L353.333+50.528L353.333+73.148L351.773+73.148C351.6+71.6747+351.34+70.6997+350.993+70.223C350.646+69.7463+350.126+69.508+349.433+69.508L307.703+69.508L307.703+80.298L331.883+80.298C333.183+80.298+334.115+80.0163+334.678+79.453C335.241+78.8897+335.61+78.1747+335.783+77.308L337.343+77.308L337.343+97.588L335.783+97.588Z" opacity="1" fill="#ffffff"/>
</g>
</g>
<g id="Layer 7" vectornator:layerName="Layer 7">
<g opacity="1">
<path d="M153.649+147.316C156.113+144.265+158.899+140.833+162.009+137.02C165.118+133.207+168.286+129.276+171.513+125.228C174.739+121.18+177.907+117.249+181.017+113.436C184.126+109.623+186.883+106.191+189.289+103.14C191.694+100.089+193.63+97.596+195.097+95.66C196.563+93.724+197.297+92.6386+197.297+92.404C197.297+91.8173+197.003+91.4653+196.417+91.348C195.83+91.2306+195.067+91.1133+194.129+90.996L194.129+88.884L236.017+88.884L236.017+90.996C234.843+91.1133+233.934+91.2306+233.289+91.348C232.643+91.4653+232.321+91.8173+232.321+92.404L232.321+147.492L243.409+147.492C244.113+147.492+244.817+147.257+245.521+146.788C246.225+146.319+246.577+145.263+246.577+143.62L248.689+143.62L248.689+169.14L246.577+169.14C246.577+167.497+246.225+166.412+245.521+165.884C244.817+165.356+244.113+165.092+243.409+165.092L232.321+165.092L232.321+176.18C232.321+177.471+232.761+178.292+233.641+178.644C234.521+178.996+235.43+179.231+236.369+179.348L236.369+181.46L205.041+181.46L205.041+179.348C205.862+179.231+206.683+178.996+207.505+178.644C208.326+178.292+208.737+177.471+208.737+176.18L208.737+165.092L158.929+165.092C158.225+165.092+157.521+165.356+156.817+165.884C156.113+166.412+155.761+167.497+155.761+169.14L153.649+169.14L153.649+147.316ZM208.737+106.484L208.385+106.484L174.945+147.492L208.737+147.492L208.737+106.484Z" opacity="1" fill="#ffffff"/>
<path d="M308.705+87.828C315.275+87.828+321.435+89.0306+327.185+91.436C332.934+93.8413+338.009+97.156+342.409+101.38C346.809+105.604+350.27+110.591+352.793+116.34C355.315+122.089+356.577+128.367+356.577+135.172C356.577+141.977+355.315+148.255+352.793+154.004C350.27+159.753+346.809+164.74+342.409+168.964C338.009+173.188+332.934+176.415+327.185+178.644C321.435+180.873+315.275+181.988+308.705+181.988C302.251+181.988+296.121+180.873+290.313+178.644C284.505+176.415+279.401+173.188+275.001+168.964C270.601+164.74+267.139+159.753+264.617+154.004C262.094+148.255+260.833+141.977+260.833+135.172C260.833+128.367+262.094+122.089+264.617+116.34C267.139+110.591+270.601+105.604+275.001+101.38C279.401+97.156+284.505+93.8413+290.313+91.436C296.121+89.0306+302.251+87.828+308.705+87.828ZM308.705+108.596C304.833+108.596+301.518+109.359+298.761+110.884C296.003+112.409+293.745+114.433+291.985+116.956C290.225+119.479+288.934+122.324+288.113+125.492C287.291+128.66+286.881+131.887+286.881+135.172C286.881+138.457+287.291+141.684+288.113+144.852C288.934+148.02+290.225+150.865+291.985+153.388C293.745+155.911+296.003+157.935+298.761+159.46C301.518+160.985+304.833+161.748+308.705+161.748C312.577+161.748+315.891+160.985+318.649+159.46C321.406+157.935+323.665+155.911+325.425+153.388C327.185+150.865+328.475+148.02+329.297+144.852C330.118+141.684+330.529+138.457+330.529+135.172C330.529+131.887+330.118+128.66+329.297+125.492C328.475+122.324+327.185+119.479+325.425+116.956C323.665+114.433+321.406+112.409+318.649+110.884C315.891+109.359+312.577+108.596+308.705+108.596Z" opacity="1" fill="#ffffff"/>
<path d="M368.721+147.316C371.185+144.265+373.971+140.833+377.081+137.02C380.19+133.207+383.358+129.276+386.585+125.228C389.811+121.18+392.979+117.249+396.089+113.436C399.198+109.623+401.955+106.191+404.361+103.14C406.766+100.089+408.702+97.596+410.169+95.66C411.635+93.724+412.369+92.6386+412.369+92.404C412.369+91.8173+412.075+91.4653+411.489+91.348C410.902+91.2306+410.139+91.1133+409.201+90.996L409.201+88.884L451.089+88.884L451.089+90.996C449.915+91.1133+449.006+91.2306+448.361+91.348C447.715+91.4653+447.393+91.8173+447.393+92.404L447.393+147.492L458.481+147.492C459.185+147.492+459.889+147.257+460.593+146.788C461.297+146.319+461.649+145.263+461.649+143.62L463.761+143.62L463.761+169.14L461.649+169.14C461.649+167.497+461.297+166.412+460.593+165.884C459.889+165.356+459.185+165.092+458.481+165.092L447.393+165.092L447.393+176.18C447.393+177.471+447.833+178.292+448.713+178.644C449.593+178.996+450.502+179.231+451.441+179.348L451.441+181.46L420.113+181.46L420.113+179.348C420.934+179.231+421.755+178.996+422.577+178.644C423.398+178.292+423.809+177.471+423.809+176.18L423.809+165.092L374.001+165.092C373.297+165.092+372.593+165.356+371.889+165.884C371.185+166.412+370.833+167.497+370.833+169.14L368.721+169.14L368.721+147.316ZM423.809+106.484L423.457+106.484L390.017+147.492L423.809+147.492L423.809+106.484Z" opacity="1" fill="#ffffff"/>
</g>
</g>
</svg>
