<?xml version="1.0" encoding="UTF-8" standalone="no"?> <!-- Created with Vectornator for iOS (http://vectornator.io/) --><!DOCTYPE svg PUBLIC
        "-//W3C//DTD SVG 1.1//EN" "http://www.w3.org/Graphics/SVG/1.1/DTD/svg11.dtd">
<svg height="100%" style="fill-rule:nonzero;clip-rule:evenodd;stroke-linecap:round;stroke-linejoin:round;"
     xmlns:xlink="http://www.w3.org/1999/xlink" xmlns="http://www.w3.org/2000/svg" xml:space="preserve" width="100%"
     xmlns:vectornator="http://vectornator.io" version="1.1" viewBox="0 0 853 305">
<metadata>
<vectornator:setting key="DimensionsVisible" value="1"/>
    <vectornator:setting key="PencilOnly" value="0"/>
    <vectornator:setting key="SnapToPoints" value="0"/>
    <vectornator:setting key="OutlineMode" value="0"/>
    <vectornator:setting key="CMYKEnabledKey" value="0"/>
    <vectornator:setting key="RulersVisible" value="1"/>
    <vectornator:setting key="SnapToEdges" value="0"/>
    <vectornator:setting key="GuidesVisible" value="1"/>
    <vectornator:setting key="DisplayWhiteBackground" value="0"/>
    <vectornator:setting key="doHistoryDisabled" value="0"/>
    <vectornator:setting key="SnapToGuides" value="1"/>
    <vectornator:setting key="TimeLapseWatermarkDisabled" value="0"/>
    <vectornator:setting key="Units" value="Pixels"/>
    <vectornator:setting key="DynamicGuides" value="0"/>
    <vectornator:setting key="IsolateActiveLayer" value="0"/>
    <vectornator:setting key="SnapToGrid" value="0"/>
</metadata>
    <defs/>
    <g id="Layer 1" vectornator:layerName="Layer 1">
<path stroke="#000000" stroke-width="1" d="M-1.00579-0.27179L853-0.27179L853+305L-1.00579+305L-1.00579-0.27179Z"
      fill="#000000" stroke-linecap="round" opacity="1" stroke-linejoin="round"/>
        <path stroke="#ffcc00" stroke-width="1"
              d="M36.2367+229.649L36.2367+230.211L73.0138+253.646L813.837+253.646L813.837+229.649L36.2367+229.649Z"
              fill="#ffcc00" stroke-linecap="round" opacity="1" stroke-linejoin="round"/>
        <path stroke="#ffcc00" stroke-width="1"
              d="M789.924+104.457L813.924+104.457L813.924+229.457L789.924+229.457L789.924+104.457Z" fill="#ffcc00"
              stroke-linecap="round" opacity="1" stroke-linejoin="round"/>
        <path stroke="#ffcc00" stroke-width="1"
              d="M687.052+46.2967L711.052+46.2967L711.052+229.457L687.052+229.457L687.052+46.2967Z" fill="#ffcc00"
              stroke-linecap="round" opacity="1" stroke-linejoin="round"/>
        <path stroke="#ffcc00" stroke-width="1"
              d="M581.284+46.2967L605.284+46.2967L605.284+229.457L581.284+229.457L581.284+46.2967Z" fill="#ffcc00"
              stroke-linecap="round" opacity="1" stroke-linejoin="round"/>
        <path stroke="#ffcc00" stroke-width="1"
              d="M599.471+108.407L700.149+108.407L700.149+132.407L599.471+132.407L599.471+108.407Z" fill="#ffcc00"
              stroke-linecap="round" opacity="1" stroke-linejoin="round"/>
        <path stroke="#ffcc00" stroke-width="1"
              d="M593.284+77.7584L693.962+77.7584L693.962+101.758L593.284+101.758L593.284+77.7584Z" fill="#ffcc00"
              stroke-linecap="round" opacity="1" stroke-linejoin="round"/>
        <path stroke="#ffcc00" stroke-width="1"
              d="M593.284+139.056L693.962+139.056L693.962+163.056L593.284+163.056L593.284+139.056Z" fill="#ffcc00"
              stroke-linecap="round" opacity="1" stroke-linejoin="round"/>
        <path stroke="#ffcc00" stroke-width="1"
              d="M700.149+125.479L800.827+125.479L800.827+149.479L700.149+149.479L700.149+125.479Z" fill="#ffcc00"
              stroke-linecap="round" opacity="1" stroke-linejoin="round"/>
        <path stroke="#ffcc00" stroke-width="1"
              d="M810.109+150.558L703.889+219.055L690.867+198.895L797.086+130.399L810.109+150.558Z" fill="#ffcc00"
              stroke-linecap="round" opacity="1" stroke-linejoin="round"/>
        <path stroke="#ffcc00" stroke-width="1"
              d="M643.512+46.2852L690.793+98.8165L708.574+82.7852L675.731+46.2852L643.512+46.2852Z" fill="#ffcc00"
              stroke-linecap="round" opacity="1" stroke-linejoin="round"/>
        <g opacity="1">
<path d="M168.717+206.604C170.364+206.43+171.382+206.149+171.772+205.759C172.162+205.369+172.357+204.87+172.357+204.264L172.357+155.644L149.997+155.644C149.304+155.644+148.784+155.882+148.437+156.359C148.091+156.835+147.831+157.81+147.657+159.284L146.097+159.284L146.097+136.144L147.657+136.144C147.831+137.617+148.091+138.592+148.437+139.069C148.784+139.545+149.304+139.784+149.997+139.784L214.217+139.784C214.911+139.784+215.431+139.545+215.777+139.069C216.124+138.592+216.384+137.617+216.557+136.144L218.117+136.144L218.117+159.284L216.557+159.284C216.384+157.81+216.124+156.835+215.777+156.359C215.431+155.882+214.911+155.644+214.217+155.644L191.857+155.644L191.857+204.264C191.857+204.87+192.052+205.369+192.442+205.759C192.832+206.149+193.851+206.43+195.497+206.604L195.497+208.164L168.717+208.164L168.717+206.604Z"
      opacity="1" fill="#ffffff"/>
            <path d="M277.397+168.644C281.211+168.644+283.832+167.929+285.262+166.499C286.692+165.069+287.407+163.4+287.407+161.494C287.407+159.587+286.692+157.919+285.262+156.489C283.832+155.059+281.211+154.344+277.397+154.344L255.557+154.344L255.557+168.644L277.397+168.644ZM255.557+204.264C255.557+204.87+255.752+205.369+256.142+205.759C256.532+206.149+257.551+206.43+259.197+206.604L259.197+208.164L232.417+208.164L232.417+206.604C234.064+206.43+235.082+206.149+235.472+205.759C235.862+205.369+236.057+204.87+236.057+204.264L236.057+143.684C236.057+143.077+235.862+142.579+235.472+142.189C235.082+141.799+234.064+141.517+232.417+141.344L232.417+139.784L279.997+139.784C289.617+139.784+296.594+141.539+300.927+145.049C305.261+148.559+307.427+153.997+307.427+161.364C307.427+167.344+305.672+172.024+302.162+175.404C298.652+178.784+294.211+181.21+288.837+182.684L304.177+204.264C305.217+205.824+306.474+206.604+307.947+206.604L307.947+208.164L280.907+208.164L280.907+206.604C282.814+206.517+283.767+205.737+283.767+204.264C283.767+204.09+283.421+203.484+282.727+202.444C282.034+201.404+281.167+200.147+280.127+198.674C279.087+197.2+277.939+195.619+276.682+193.929C275.426+192.239+274.212+190.614+273.042+189.054C271.872+187.494+270.854+186.107+269.987+184.894C269.121+183.68+268.557+182.857+268.297+182.424L255.557+182.424L255.557+204.264Z"
                  opacity="1" fill="#ffffff"/>
            <path d="M341.747+205.304C341.747+205.737+341.899+206.062+342.202+206.279C342.506+206.495+343.134+206.604+344.087+206.604L344.087+208.164L321.077+208.164L321.077+206.604C322.031+206.43+322.724+206.149+323.157+205.759C323.591+205.369+324.024+204.654+324.457+203.614C324.631+203.18+325.064+202.01+325.757+200.104C326.451+198.197+327.361+195.792+328.487+192.889C329.614+189.985+330.871+186.757+332.257+183.204C333.644+179.65+335.031+176.032+336.417+172.349C337.804+168.665+339.169+165.069+340.512+161.559C341.856+158.049+343.047+154.907+344.087+152.134C345.127+149.36+345.972+147.107+346.622+145.374C347.272+143.64+347.597+142.73+347.597+142.644C347.597+142.21+347.316+141.907+346.752+141.734C346.189+141.56+345.604+141.43+344.997+141.344L344.997+139.784L378.927+139.784L378.927+141.344C378.234+141.43+377.671+141.56+377.237+141.734C376.804+141.907+376.587+142.34+376.587+143.034C376.587+143.207+376.999+144.334+377.822+146.414C378.646+148.494+379.707+151.202+381.007+154.539C382.307+157.875+383.802+161.645+385.492+165.849C387.182+170.052+388.937+174.342+390.757+178.719C392.577+183.095+394.332+187.364+396.022+191.524C397.712+195.684+399.251+199.41+400.637+202.704C401.331+204.264+401.916+205.304+402.392+205.824C402.869+206.344+403.497+206.604+404.277+206.604L404.277+208.164L378.667+208.164L378.667+206.604C380.314+206.517+381.137+205.997+381.137+205.044C381.137+204.957+380.921+204.372+380.487+203.289C380.054+202.205+379.577+200.992+379.057+199.649C378.537+198.305+378.039+197.027+377.562+195.814C377.086+194.6+376.804+193.777+376.717+193.344L345.907+193.344C345.041+195.684+344.347+197.59+343.827+199.064C343.307+200.537+342.896+201.707+342.592+202.574C342.289+203.44+342.072+204.069+341.942+204.459C341.812+204.849+341.747+205.13+341.747+205.304ZM373.337+182.944L360.727+152.004L349.157+182.944L373.337+182.944Z"
                  opacity="1" fill="#ffffff"/>
            <path d="M421.567+206.604C423.214+206.43+424.232+206.149+424.622+205.759C425.012+205.369+425.207+204.87+425.207+204.264L425.207+143.684C425.207+143.077+425.012+142.579+424.622+142.189C424.232+141.799+423.214+141.517+421.567+141.344L421.567+139.784L448.347+139.784L448.347+141.344C446.701+141.517+445.682+141.799+445.292+142.189C444.902+142.579+444.707+143.077+444.707+143.684L444.707+204.264C444.707+204.87+444.902+205.369+445.292+205.759C445.682+206.149+446.701+206.43+448.347+206.604L448.347+208.164L421.567+208.164L421.567+206.604Z"
                  opacity="1" fill="#ffffff"/>
            <path d="M474.347+143.684C474.347+143.077+474.152+142.579+473.762+142.189C473.372+141.799+472.354+141.517+470.707+141.344L470.707+139.784L502.037+139.784L502.037+141.344C500.564+141.43+499.589+141.625+499.112+141.929C498.636+142.232+498.397+142.6+498.397+143.034C498.397+143.207+498.961+143.987+500.087+145.374C501.214+146.76+502.687+148.494+504.507+150.574C506.327+152.654+508.386+154.972+510.682+157.529C512.979+160.085+515.297+162.642+517.637+165.199C519.977+167.755+522.231+170.182+524.397+172.479C526.564+174.775+528.427+176.747+529.987+178.394L529.987+143.684C529.987+142.21+529.077+141.43+527.257+141.344L527.257+139.784L551.047+139.784L551.047+141.344C549.401+141.517+548.382+141.799+547.992+142.189C547.602+142.579+547.407+143.077+547.407+143.684L547.407+204.264C547.407+204.87+547.602+205.369+547.992+205.759C548.382+206.149+549.401+206.43+551.047+206.604L551.047+208.164L526.347+208.164L526.347+206.604C527.561+206.604+528.362+206.474+528.752+206.214C529.142+205.954+529.337+205.607+529.337+205.174C529.337+204.914+529.207+204.589+528.947+204.199C528.687+203.809+528.124+203.137+527.257+202.184C526.391+201.23+525.112+199.865+523.422+198.089C521.732+196.312+519.501+193.929+516.727+190.939C513.954+187.949+510.531+184.222+506.457+179.759C502.384+175.295+497.487+169.857+491.767+163.444L491.767+204.264C491.767+204.87+491.962+205.369+492.352+205.759C492.742+206.149+493.761+206.43+495.407+206.604L495.407+208.164L470.707+208.164L470.707+206.604C472.354+206.43+473.372+206.149+473.762+205.759C474.152+205.369+474.347+204.87+474.347+204.264L474.347+143.684Z"
                  opacity="1" fill="#ffffff"/>
</g>
        <g opacity="1">
<path d="M41.3473+54.9582C41.3473+54.3515+41.1523+53.8532+40.7623+53.4632C40.3723+53.0732+39.354+52.7915+37.7073+52.6182L37.7073+51.0582L69.0373+51.0582L69.0373+52.6182C67.564+52.7049+66.589+52.8999+66.1123+53.2032C65.6356+53.5065+65.3973+53.8749+65.3973+54.3082C65.3973+54.4815+65.9606+55.2615+67.0873+56.6482C68.214+58.0349+69.6873+59.7682+71.5073+61.8482C73.3273+63.9282+75.3856+66.2465+77.6823+68.8032C79.979+71.3599+82.2973+73.9165+84.6373+76.4732C86.9773+79.0299+89.2306+81.4565+91.3973+83.7532C93.564+86.0499+95.4273+88.0215+96.9873+89.6682L96.9873+54.9582C96.9873+53.4849+96.0773+52.7049+94.2573+52.6182L94.2573+51.0582L118.047+51.0582L118.047+52.6182C116.401+52.7915+115.382+53.0732+114.992+53.4632C114.602+53.8532+114.407+54.3515+114.407+54.9582L114.407+115.538C114.407+116.145+114.602+116.643+114.992+117.033C115.382+117.423+116.401+117.705+118.047+117.878L118.047+119.438L93.3473+119.438L93.3473+117.878C94.5606+117.878+95.3623+117.748+95.7523+117.488C96.1423+117.228+96.3373+116.882+96.3373+116.448C96.3373+116.188+96.2073+115.863+95.9473+115.473C95.6873+115.083+95.124+114.412+94.2573+113.458C93.3906+112.505+92.1123+111.14+90.4223+109.363C88.7323+107.587+86.5006+105.203+83.7273+102.213C80.954+99.2232+77.5306+95.4965+73.4573+91.0332C69.384+86.5699+64.4873+81.1315+58.7673+74.7182L58.7673+115.538C58.7673+116.145+58.9623+116.643+59.3523+117.033C59.7423+117.423+60.7606+117.705+62.4073+117.878L62.4073+119.438L37.7073+119.438L37.7073+117.878C39.354+117.705+40.3723+117.423+40.7623+117.033C41.1523+116.643+41.3473+116.145+41.3473+115.538L41.3473+54.9582Z"
      opacity="1" fill="#ffffff"/>
            <path d="M140.277+117.878C141.924+117.705+142.942+117.423+143.332+117.033C143.722+116.643+143.917+116.145+143.917+115.538L143.917+54.9582C143.917+54.3515+143.722+53.8532+143.332+53.4632C142.942+53.0732+141.924+52.7915+140.277+52.6182L140.277+51.0582L167.057+51.0582L167.057+52.6182C165.411+52.7915+164.392+53.0732+164.002+53.4632C163.612+53.8532+163.417+54.3515+163.417+54.9582L163.417+115.538C163.417+116.145+163.612+116.643+164.002+117.033C164.392+117.423+165.411+117.705+167.057+117.878L167.057+119.438L140.277+119.438L140.277+117.878Z"
                  opacity="1" fill="#ffffff"/>
            <path d="M251.687+75.3682C251.774+75.1082+251.839+74.8265+251.882+74.5232C251.926+74.2199+251.947+73.8515+251.947+73.4182C251.947+72.7249+251.362+72.0315+250.192+71.3382C249.022+70.6449+247.462+70.0165+245.512+69.4532C243.562+68.8899+241.331+68.4132+238.817+68.0232C236.304+67.6332+233.661+67.4382+230.887+67.4382C228.287+67.4382+225.557+67.7415+222.697+68.3482C219.837+68.9549+217.216+69.9515+214.832+71.3382C212.449+72.7249+210.499+74.5665+208.982+76.8632C207.466+79.1599+206.707+81.9549+206.707+85.2482C206.707+88.5415+207.466+91.3365+208.982+93.6332C210.499+95.9299+212.449+97.7715+214.832+99.1582C217.216+100.545+219.837+101.542+222.697+102.148C225.557+102.755+228.287+103.058+230.887+103.058C232.014+103.058+233.791+102.863+236.217+102.473C238.644+102.083+241.071+101.542+243.497+100.848C245.924+100.155+248.069+99.3749+249.932+98.5082C251.796+97.6415+252.727+96.7315+252.727+95.7782C252.727+95.3449+252.641+94.9982+252.467+94.7382C252.294+94.4782+252.121+94.1749+251.947+93.8282L253.377+92.9182L266.767+113.328L265.207+114.238C265.034+113.805+264.796+113.523+264.492+113.393C264.189+113.263+263.821+113.198+263.387+113.198C262.781+113.198+261.567+113.567+259.747+114.303C257.927+115.04+255.566+115.82+252.662+116.643C249.759+117.467+246.357+118.203+242.457+118.853C238.557+119.503+234.181+119.828+229.327+119.828C224.127+119.828+218.971+119.157+213.857+117.813C208.744+116.47+204.151+114.347+200.077+111.443C196.004+108.54+192.711+104.9+190.197+100.523C187.684+96.1465+186.427+91.0549+186.427+85.2482C186.427+79.4415+187.684+74.3499+190.197+69.9732C192.711+65.5965+196.004+61.9565+200.077+59.0532C204.151+56.1499+208.744+53.9615+213.857+52.4882C218.971+51.0149+224.127+50.2782+229.327+50.2782C234.527+50.2782+239.012+50.5599+242.782+51.1232C246.552+51.6865+249.737+52.3149+252.337+53.0082C254.851+53.7015+256.801+54.2865+258.187+54.7632C259.574+55.2399+260.614+55.4782+261.307+55.4782C262.087+55.4782+262.737+55.1315+263.257+54.4382L264.687+54.8282L252.987+76.2782L251.687+75.3682Z"
                  opacity="1" fill="#ffffff"/>
            <path d="M334.497+94.4782C334.324+93.6115+333.956+92.8965+333.392+92.3332C332.829+91.7699+331.897+91.4882+330.597+91.4882L306.417+91.4882L306.417+103.578L348.147+103.578C348.841+103.578+349.361+103.34+349.707+102.863C350.054+102.387+350.314+101.325+350.487+99.6782L352.047+99.6782L352.047+121.908L350.487+121.908C350.314+120.782+350.054+120.088+349.707+119.828C349.361+119.568+348.841+119.438+348.147+119.438L283.277+119.438L283.277+117.878C284.924+117.705+285.942+117.423+286.332+117.033C286.722+116.643+286.917+116.145+286.917+115.538L286.917+54.9582C286.917+54.3515+286.722+53.8532+286.332+53.4632C285.942+53.0732+284.924+52.7915+283.277+52.6182L283.277+51.0582L348.147+51.0582C348.841+51.0582+349.361+50.8199+349.707+50.3432C350.054+49.8665+350.314+48.8915+350.487+47.4182L352.047+47.4182L352.047+70.0382L350.487+70.0382C350.314+68.5649+350.054+67.5899+349.707+67.1132C349.361+66.6365+348.841+66.3982+348.147+66.3982L306.417+66.3982L306.417+77.1882L330.597+77.1882C331.897+77.1882+332.829+76.9065+333.392+76.3432C333.956+75.7799+334.324+75.0649+334.497+74.1982L336.057+74.1982L336.057+94.4782L334.497+94.4782Z"
                  opacity="1" fill="#ffffff"/>
</g>
</g>
</svg>
